STARTFONT 2.1
FONT -FontForge-uni 05_53-Book-R-Normal--8-80-72-72-P-55-ISO10646-1
SIZE 8 72 72
FONTBOUNDINGBOX 24 11 -1 -2
COMMENT "Generated by fontforge, http://fontforge.sourceforge.net"
COMMENT "(c)2002 | www.miniml.com | design by craig kroeger"
STARTPROPERTIES 39
FOUNDRY "FontForge"
FAMILY_NAME "uni 05_53"
WEIGHT_NAME "Book"
SLANT "R"
SETWIDTH_NAME "Normal"
ADD_STYLE_NAME ""
PIXEL_SIZE 8
POINT_SIZE 80
RESOLUTION_X 72
RESOLUTION_Y 72
SPACING "P"
AVERAGE_WIDTH 55
CHARSET_REGISTRY "ISO10646"
CHARSET_ENCODING "1"
FONTNAME_REGISTRY ""
CHARSET_COLLECTIONS "ISO8859-2 ISO8859-5 ISO8859-7 ISO8859-9 ISO8859-4 Symbol ISO10646-1"
FONT_NAME "Uni0553"
FACE_NAME "uni 05_53"
COPYRIGHT "(c)2002 | www.miniml.com | design by craig kroeger"
FONT_VERSION "Macromedia Fontographer 4.1.4 5/28/03"
FONT_ASCENT 6
FONT_DESCENT 2
UNDERLINE_POSITION -1
UNDERLINE_THICKNESS 1
X_HEIGHT 3
CAP_HEIGHT 4
RAW_ASCENT 800
RAW_DESCENT 200
NORM_SPACE 3
RELATIVE_WEIGHT 40
RELATIVE_SETWIDTH 50
SUPERSCRIPT_X 0
SUPERSCRIPT_Y 3
SUPERSCRIPT_SIZE 5
SUBSCRIPT_X 0
SUBSCRIPT_Y 1
SUBSCRIPT_SIZE 5
AVG_LOWERCASE_WIDTH 50
AVG_UPPERCASE_WIDTH 61
ENDPROPERTIES
CHARS 712
STARTCHAR space
ENCODING 32
SWIDTH 375 0
DWIDTH 3 0
BBX 1 1 0 0
BITMAP
00
ENDCHAR
STARTCHAR exclam
ENCODING 33
SWIDTH 375 0
DWIDTH 3 0
BBX 1 5 1 0
BITMAP
80
80
80
00
80
ENDCHAR
STARTCHAR quotedbl
ENCODING 34
SWIDTH 500 0
DWIDTH 4 0
BBX 3 2 0 3
BITMAP
A0
A0
ENDCHAR
STARTCHAR numbersign
ENCODING 35
SWIDTH 750 0
DWIDTH 6 0
BBX 5 5 0 0
BITMAP
50
F8
50
F8
50
ENDCHAR
STARTCHAR dollar
ENCODING 36
SWIDTH 750 0
DWIDTH 6 0
BBX 5 7 0 -1
BITMAP
20
78
80
70
08
F0
20
ENDCHAR
STARTCHAR percent
ENCODING 37
SWIDTH 750 0
DWIDTH 6 0
BBX 5 5 0 0
BITMAP
88
10
20
40
88
ENDCHAR
STARTCHAR ampersand
ENCODING 38
SWIDTH 875 0
DWIDTH 7 0
BBX 6 5 0 0
BITMAP
70
88
70
84
78
ENDCHAR
STARTCHAR quotesingle
ENCODING 39
SWIDTH 250 0
DWIDTH 2 0
BBX 1 2 0 3
BITMAP
80
80
ENDCHAR
STARTCHAR parenleft
ENCODING 40
SWIDTH 375 0
DWIDTH 3 0
BBX 2 7 0 -1
BITMAP
40
80
80
80
80
80
40
ENDCHAR
STARTCHAR parenright
ENCODING 41
SWIDTH 375 0
DWIDTH 3 0
BBX 2 7 0 -1
BITMAP
80
40
40
40
40
40
80
ENDCHAR
STARTCHAR asterisk
ENCODING 42
SWIDTH 750 0
DWIDTH 6 0
BBX 5 5 0 0
BITMAP
50
20
F8
20
50
ENDCHAR
STARTCHAR plus
ENCODING 43
SWIDTH 750 0
DWIDTH 6 0
BBX 5 5 0 0
BITMAP
20
20
F8
20
20
ENDCHAR
STARTCHAR comma
ENCODING 44
SWIDTH 375 0
DWIDTH 3 0
BBX 2 3 0 -2
BITMAP
40
40
80
ENDCHAR
STARTCHAR hyphenminus
ENCODING 45
SWIDTH 625 0
DWIDTH 5 0
BBX 4 1 0 2
BITMAP
F0
ENDCHAR
STARTCHAR period
ENCODING 46
SWIDTH 250 0
DWIDTH 2 0
BBX 1 1 0 0
BITMAP
80
ENDCHAR
STARTCHAR slash
ENCODING 47
SWIDTH 750 0
DWIDTH 6 0
BBX 5 5 0 0
BITMAP
08
10
20
40
80
ENDCHAR
STARTCHAR zero
ENCODING 48
SWIDTH 750 0
DWIDTH 6 0
BBX 5 5 0 0
BITMAP
70
88
88
88
70
ENDCHAR
STARTCHAR one
ENCODING 49
SWIDTH 375 0
DWIDTH 3 0
BBX 2 5 0 0
BITMAP
C0
40
40
40
40
ENDCHAR
STARTCHAR two
ENCODING 50
SWIDTH 750 0
DWIDTH 6 0
BBX 5 5 0 0
BITMAP
F0
08
78
80
F8
ENDCHAR
STARTCHAR three
ENCODING 51
SWIDTH 750 0
DWIDTH 6 0
BBX 5 5 0 0
BITMAP
F0
08
70
08
F0
ENDCHAR
STARTCHAR four
ENCODING 52
SWIDTH 750 0
DWIDTH 6 0
BBX 5 5 0 0
BITMAP
88
88
F8
08
08
ENDCHAR
STARTCHAR five
ENCODING 53
SWIDTH 750 0
DWIDTH 6 0
BBX 5 5 0 0
BITMAP
F8
80
F0
08
F0
ENDCHAR
STARTCHAR six
ENCODING 54
SWIDTH 750 0
DWIDTH 6 0
BBX 5 5 0 0
BITMAP
70
80
F0
88
70
ENDCHAR
STARTCHAR seven
ENCODING 55
SWIDTH 625 0
DWIDTH 5 0
BBX 4 5 0 0
BITMAP
F0
10
10
20
20
ENDCHAR
STARTCHAR eight
ENCODING 56
SWIDTH 750 0
DWIDTH 6 0
BBX 5 5 0 0
BITMAP
70
88
70
88
70
ENDCHAR
STARTCHAR nine
ENCODING 57
SWIDTH 750 0
DWIDTH 6 0
BBX 5 5 0 0
BITMAP
70
88
78
08
70
ENDCHAR
STARTCHAR colon
ENCODING 58
SWIDTH 500 0
DWIDTH 4 0
BBX 1 3 1 1
BITMAP
80
00
80
ENDCHAR
STARTCHAR semicolon
ENCODING 59
SWIDTH 500 0
DWIDTH 4 0
BBX 2 6 0 -2
BITMAP
40
00
00
40
40
80
ENDCHAR
STARTCHAR less
ENCODING 60
SWIDTH 500 0
DWIDTH 4 0
BBX 3 5 0 0
BITMAP
20
40
80
40
20
ENDCHAR
STARTCHAR equal
ENCODING 61
SWIDTH 750 0
DWIDTH 6 0
BBX 5 3 0 1
BITMAP
F8
00
F8
ENDCHAR
STARTCHAR greater
ENCODING 62
SWIDTH 500 0
DWIDTH 4 0
BBX 3 5 0 0
BITMAP
80
40
20
40
80
ENDCHAR
STARTCHAR question
ENCODING 63
SWIDTH 625 0
DWIDTH 5 0
BBX 4 5 0 0
BITMAP
E0
10
60
00
40
ENDCHAR
STARTCHAR at
ENCODING 64
SWIDTH 750 0
DWIDTH 6 0
BBX 5 5 0 0
BITMAP
70
88
B8
80
70
ENDCHAR
STARTCHAR A
ENCODING 65
SWIDTH 750 0
DWIDTH 6 0
BBX 5 5 0 0
BITMAP
70
88
F8
88
88
ENDCHAR
STARTCHAR B
ENCODING 66
SWIDTH 750 0
DWIDTH 6 0
BBX 5 5 0 0
BITMAP
F0
88
F0
88
F0
ENDCHAR
STARTCHAR C
ENCODING 67
SWIDTH 750 0
DWIDTH 6 0
BBX 5 5 0 0
BITMAP
70
88
80
88
70
ENDCHAR
STARTCHAR D
ENCODING 68
SWIDTH 750 0
DWIDTH 6 0
BBX 5 5 0 0
BITMAP
F0
88
88
88
F0
ENDCHAR
STARTCHAR E
ENCODING 69
SWIDTH 750 0
DWIDTH 6 0
BBX 5 5 0 0
BITMAP
F8
80
F0
80
F8
ENDCHAR
STARTCHAR F
ENCODING 70
SWIDTH 750 0
DWIDTH 6 0
BBX 5 5 0 0
BITMAP
F8
80
F0
80
80
ENDCHAR
STARTCHAR G
ENCODING 71
SWIDTH 750 0
DWIDTH 6 0
BBX 5 5 0 0
BITMAP
78
80
B8
88
78
ENDCHAR
STARTCHAR H
ENCODING 72
SWIDTH 750 0
DWIDTH 6 0
BBX 5 5 0 0
BITMAP
88
88
F8
88
88
ENDCHAR
STARTCHAR I
ENCODING 73
SWIDTH 250 0
DWIDTH 2 0
BBX 1 5 0 0
BITMAP
80
80
80
80
80
ENDCHAR
STARTCHAR J
ENCODING 74
SWIDTH 625 0
DWIDTH 5 0
BBX 4 5 0 0
BITMAP
10
10
10
90
60
ENDCHAR
STARTCHAR K
ENCODING 75
SWIDTH 750 0
DWIDTH 6 0
BBX 5 5 0 0
BITMAP
88
90
E0
90
88
ENDCHAR
STARTCHAR L
ENCODING 76
SWIDTH 625 0
DWIDTH 5 0
BBX 4 5 0 0
BITMAP
80
80
80
80
F0
ENDCHAR
STARTCHAR M
ENCODING 77
SWIDTH 750 0
DWIDTH 6 0
BBX 5 5 0 0
BITMAP
88
D8
A8
88
88
ENDCHAR
STARTCHAR N
ENCODING 78
SWIDTH 750 0
DWIDTH 6 0
BBX 5 5 0 0
BITMAP
88
C8
A8
98
88
ENDCHAR
STARTCHAR O
ENCODING 79
SWIDTH 750 0
DWIDTH 6 0
BBX 5 5 0 0
BITMAP
70
88
88
88
70
ENDCHAR
STARTCHAR P
ENCODING 80
SWIDTH 750 0
DWIDTH 6 0
BBX 5 5 0 0
BITMAP
F0
88
F0
80
80
ENDCHAR
STARTCHAR Q
ENCODING 81
SWIDTH 750 0
DWIDTH 6 0
BBX 5 6 0 -1
BITMAP
70
88
88
88
70
08
ENDCHAR
STARTCHAR R
ENCODING 82
SWIDTH 750 0
DWIDTH 6 0
BBX 5 5 0 0
BITMAP
F0
88
F0
90
88
ENDCHAR
STARTCHAR S
ENCODING 83
SWIDTH 750 0
DWIDTH 6 0
BBX 5 5 0 0
BITMAP
78
80
70
08
F0
ENDCHAR
STARTCHAR T
ENCODING 84
SWIDTH 750 0
DWIDTH 6 0
BBX 5 5 0 0
BITMAP
F8
20
20
20
20
ENDCHAR
STARTCHAR U
ENCODING 85
SWIDTH 750 0
DWIDTH 6 0
BBX 5 5 0 0
BITMAP
88
88
88
88
70
ENDCHAR
STARTCHAR V
ENCODING 86
SWIDTH 750 0
DWIDTH 6 0
BBX 5 5 0 0
BITMAP
88
88
88
50
20
ENDCHAR
STARTCHAR W
ENCODING 87
SWIDTH 1000 0
DWIDTH 8 0
BBX 7 5 0 0
BITMAP
92
92
92
92
6C
ENDCHAR
STARTCHAR X
ENCODING 88
SWIDTH 750 0
DWIDTH 6 0
BBX 5 5 0 0
BITMAP
88
50
20
50
88
ENDCHAR
STARTCHAR Y
ENCODING 89
SWIDTH 750 0
DWIDTH 6 0
BBX 5 5 0 0
BITMAP
88
50
20
20
20
ENDCHAR
STARTCHAR Z
ENCODING 90
SWIDTH 750 0
DWIDTH 6 0
BBX 5 5 0 0
BITMAP
F8
10
20
40
F8
ENDCHAR
STARTCHAR bracketleft
ENCODING 91
SWIDTH 375 0
DWIDTH 3 0
BBX 2 7 0 -1
BITMAP
C0
80
80
80
80
80
C0
ENDCHAR
STARTCHAR backslash
ENCODING 92
SWIDTH 750 0
DWIDTH 6 0
BBX 5 5 0 0
BITMAP
80
40
20
10
08
ENDCHAR
STARTCHAR bracketright
ENCODING 93
SWIDTH 375 0
DWIDTH 3 0
BBX 2 7 0 -1
BITMAP
C0
40
40
40
40
40
C0
ENDCHAR
STARTCHAR asciicircum
ENCODING 94
SWIDTH 500 0
DWIDTH 4 0
BBX 3 2 0 3
BITMAP
40
A0
ENDCHAR
STARTCHAR underscore
ENCODING 95
SWIDTH 750 0
DWIDTH 6 0
BBX 5 1 0 -1
BITMAP
F8
ENDCHAR
STARTCHAR grave
ENCODING 96
SWIDTH 375 0
DWIDTH 3 0
BBX 2 2 0 3
BITMAP
80
40
ENDCHAR
STARTCHAR a
ENCODING 97
SWIDTH 625 0
DWIDTH 5 0
BBX 4 4 0 0
BITMAP
60
90
90
70
ENDCHAR
STARTCHAR b
ENCODING 98
SWIDTH 625 0
DWIDTH 5 0
BBX 4 5 0 0
BITMAP
80
E0
90
90
E0
ENDCHAR
STARTCHAR c
ENCODING 99
SWIDTH 625 0
DWIDTH 5 0
BBX 4 4 0 0
BITMAP
70
80
80
70
ENDCHAR
STARTCHAR d
ENCODING 100
SWIDTH 625 0
DWIDTH 5 0
BBX 4 5 0 0
BITMAP
10
70
90
90
70
ENDCHAR
STARTCHAR e
ENCODING 101
SWIDTH 625 0
DWIDTH 5 0
BBX 4 4 0 0
BITMAP
70
90
A0
70
ENDCHAR
STARTCHAR f
ENCODING 102
SWIDTH 375 0
DWIDTH 3 0
BBX 2 5 0 0
BITMAP
40
80
C0
80
80
ENDCHAR
STARTCHAR g
ENCODING 103
SWIDTH 625 0
DWIDTH 5 0
BBX 4 6 0 -2
BITMAP
60
90
90
70
10
60
ENDCHAR
STARTCHAR h
ENCODING 104
SWIDTH 625 0
DWIDTH 5 0
BBX 4 5 0 0
BITMAP
80
E0
90
90
90
ENDCHAR
STARTCHAR i
ENCODING 105
SWIDTH 250 0
DWIDTH 2 0
BBX 1 5 0 0
BITMAP
80
00
80
80
80
ENDCHAR
STARTCHAR j
ENCODING 106
SWIDTH 375 0
DWIDTH 3 0
BBX 2 7 0 -2
BITMAP
40
00
40
40
40
40
80
ENDCHAR
STARTCHAR k
ENCODING 107
SWIDTH 625 0
DWIDTH 5 0
BBX 4 5 0 0
BITMAP
80
90
A0
D0
90
ENDCHAR
STARTCHAR l
ENCODING 108
SWIDTH 250 0
DWIDTH 2 0
BBX 1 5 0 0
BITMAP
80
80
80
80
80
ENDCHAR
STARTCHAR m
ENCODING 109
SWIDTH 1000 0
DWIDTH 8 0
BBX 7 4 0 0
BITMAP
EC
92
92
92
ENDCHAR
STARTCHAR n
ENCODING 110
SWIDTH 625 0
DWIDTH 5 0
BBX 4 4 0 0
BITMAP
E0
90
90
90
ENDCHAR
STARTCHAR o
ENCODING 111
SWIDTH 625 0
DWIDTH 5 0
BBX 4 4 0 0
BITMAP
60
90
90
60
ENDCHAR
STARTCHAR p
ENCODING 112
SWIDTH 625 0
DWIDTH 5 0
BBX 4 6 0 -2
BITMAP
E0
90
90
E0
80
80
ENDCHAR
STARTCHAR q
ENCODING 113
SWIDTH 625 0
DWIDTH 5 0
BBX 4 6 0 -2
BITMAP
70
90
90
70
10
10
ENDCHAR
STARTCHAR r
ENCODING 114
SWIDTH 500 0
DWIDTH 4 0
BBX 3 4 0 0
BITMAP
A0
C0
80
80
ENDCHAR
STARTCHAR s
ENCODING 115
SWIDTH 625 0
DWIDTH 5 0
BBX 4 4 0 0
BITMAP
70
C0
30
E0
ENDCHAR
STARTCHAR t
ENCODING 116
SWIDTH 500 0
DWIDTH 4 0
BBX 3 5 0 0
BITMAP
40
E0
40
40
40
ENDCHAR
STARTCHAR u
ENCODING 117
SWIDTH 625 0
DWIDTH 5 0
BBX 4 4 0 0
BITMAP
90
90
90
70
ENDCHAR
STARTCHAR v
ENCODING 118
SWIDTH 625 0
DWIDTH 5 0
BBX 4 4 0 0
BITMAP
90
90
90
60
ENDCHAR
STARTCHAR w
ENCODING 119
SWIDTH 1000 0
DWIDTH 8 0
BBX 7 4 0 0
BITMAP
92
92
92
6C
ENDCHAR
STARTCHAR x
ENCODING 120
SWIDTH 625 0
DWIDTH 5 0
BBX 4 4 0 0
BITMAP
90
60
60
90
ENDCHAR
STARTCHAR y
ENCODING 121
SWIDTH 625 0
DWIDTH 5 0
BBX 4 6 0 -2
BITMAP
90
90
90
70
10
60
ENDCHAR
STARTCHAR z
ENCODING 122
SWIDTH 625 0
DWIDTH 5 0
BBX 4 4 0 0
BITMAP
F0
20
40
F0
ENDCHAR
STARTCHAR braceleft
ENCODING 123
SWIDTH 500 0
DWIDTH 4 0
BBX 3 7 0 -1
BITMAP
20
40
40
80
40
40
20
ENDCHAR
STARTCHAR bar
ENCODING 124
SWIDTH 500 0
DWIDTH 4 0
BBX 1 7 1 -1
BITMAP
80
80
80
80
80
80
80
ENDCHAR
STARTCHAR braceright
ENCODING 125
SWIDTH 500 0
DWIDTH 4 0
BBX 3 7 0 -1
BITMAP
80
40
40
20
40
40
80
ENDCHAR
STARTCHAR asciitilde
ENCODING 126
SWIDTH 625 0
DWIDTH 5 0
BBX 4 2 0 2
BITMAP
50
A0
ENDCHAR
STARTCHAR nonbreakingspace
ENCODING 160
SWIDTH 375 0
DWIDTH 3 0
BBX 1 1 0 0
BITMAP
00
ENDCHAR
STARTCHAR exclamdown
ENCODING 161
SWIDTH 375 0
DWIDTH 3 0
BBX 1 5 0 0
BITMAP
80
00
80
80
80
ENDCHAR
STARTCHAR cent
ENCODING 162
SWIDTH 625 0
DWIDTH 5 0
BBX 4 6 0 -1
BITMAP
20
70
80
80
70
20
ENDCHAR
STARTCHAR sterling
ENCODING 163
SWIDTH 750 0
DWIDTH 6 0
BBX 5 6 0 0
BITMAP
20
50
40
E0
48
F0
ENDCHAR
STARTCHAR currency
ENCODING 164
SWIDTH 875 0
DWIDTH 7 0
BBX 6 5 0 0
BITMAP
38
44
F0
44
38
ENDCHAR
STARTCHAR yen
ENCODING 165
SWIDTH 750 0
DWIDTH 6 0
BBX 5 5 0 0
BITMAP
88
50
20
70
20
ENDCHAR
STARTCHAR brokenbar
ENCODING 166
SWIDTH 250 0
DWIDTH 2 0
BBX 1 5 0 0
BITMAP
80
80
00
80
80
ENDCHAR
STARTCHAR section
ENCODING 167
SWIDTH 500 0
DWIDTH 4 0
BBX 3 7 0 -1
BITMAP
40
80
40
A0
40
20
40
ENDCHAR
STARTCHAR dieresis
ENCODING 168
SWIDTH 625 0
DWIDTH 5 0
BBX 3 1 1 4
BITMAP
A0
ENDCHAR
STARTCHAR copyright
ENCODING 169
SWIDTH 750 0
DWIDTH 6 0
BBX 5 5 0 0
BITMAP
70
88
B8
88
70
ENDCHAR
STARTCHAR ordfeminine
ENCODING 170
SWIDTH 500 0
DWIDTH 4 0
BBX 3 5 0 0
BITMAP
40
A0
60
00
E0
ENDCHAR
STARTCHAR guillemotleft
ENCODING 171
SWIDTH 750 0
DWIDTH 6 0
BBX 5 3 0 1
BITMAP
48
90
48
ENDCHAR
STARTCHAR logicalnot
ENCODING 172
SWIDTH 750 0
DWIDTH 6 0
BBX 5 3 0 0
BITMAP
F8
08
08
ENDCHAR
STARTCHAR minus
ENCODING 173
SWIDTH 625 0
DWIDTH 5 0
BBX 4 1 0 2
BITMAP
F0
ENDCHAR
STARTCHAR registered
ENCODING 174
SWIDTH 750 0
DWIDTH 6 0
BBX 5 5 0 0
BITMAP
70
88
B8
B8
70
ENDCHAR
STARTCHAR macron
ENCODING 175
SWIDTH 500 0
DWIDTH 4 0
BBX 3 1 0 4
BITMAP
E0
ENDCHAR
STARTCHAR degree
ENCODING 176
SWIDTH 500 0
DWIDTH 4 0
BBX 3 3 0 2
BITMAP
40
A0
40
ENDCHAR
STARTCHAR plusminus
ENCODING 177
SWIDTH 750 0
DWIDTH 6 0
BBX 5 6 0 -1
BITMAP
20
20
F8
20
20
F8
ENDCHAR
STARTCHAR twosuperior
ENCODING 178
SWIDTH 500 0
DWIDTH 4 0
BBX 3 4 0 1
BITMAP
C0
20
40
E0
ENDCHAR
STARTCHAR threesuperior
ENCODING 179
SWIDTH 500 0
DWIDTH 4 0
BBX 3 4 0 1
BITMAP
C0
60
20
C0
ENDCHAR
STARTCHAR acute
ENCODING 180
SWIDTH 375 0
DWIDTH 3 0
BBX 2 2 0 3
BITMAP
40
80
ENDCHAR
STARTCHAR micro
ENCODING 181
SWIDTH 750 0
DWIDTH 6 0
BBX 5 6 0 -2
BITMAP
90
90
90
E8
80
80
ENDCHAR
STARTCHAR paragraph
ENCODING 182
SWIDTH 750 0
DWIDTH 6 0
BBX 5 5 0 0
BITMAP
78
A8
78
28
28
ENDCHAR
STARTCHAR periodcentered
ENCODING 183
SWIDTH 250 0
DWIDTH 2 0
BBX 1 1 0 2
BITMAP
80
ENDCHAR
STARTCHAR cedilla
ENCODING 184
SWIDTH 375 0
DWIDTH 3 0
BBX 2 2 0 -2
BITMAP
40
80
ENDCHAR
STARTCHAR onesuperior
ENCODING 185
SWIDTH 250 0
DWIDTH 2 0
BBX 1 4 0 1
BITMAP
80
80
80
80
ENDCHAR
STARTCHAR ordmasculine
ENCODING 186
SWIDTH 500 0
DWIDTH 4 0
BBX 3 5 0 0
BITMAP
40
A0
40
00
E0
ENDCHAR
STARTCHAR guillemotright
ENCODING 187
SWIDTH 750 0
DWIDTH 6 0
BBX 5 3 0 1
BITMAP
90
48
90
ENDCHAR
STARTCHAR onequarter
ENCODING 188
SWIDTH 1000 0
DWIDTH 8 0
BBX 7 5 0 0
BITMAP
88
90
AA
4E
82
ENDCHAR
STARTCHAR onehalf
ENCODING 189
SWIDTH 1000 0
DWIDTH 8 0
BBX 7 5 0 0
BITMAP
88
9C
A2
44
8E
ENDCHAR
STARTCHAR threequarters
ENCODING 190
SWIDTH 1125 0
DWIDTH 9 0
BBX 8 5 0 0
BITMAP
C4
68
35
E7
41
ENDCHAR
STARTCHAR questiondown
ENCODING 191
SWIDTH 625 0
DWIDTH 5 0
BBX 4 5 0 0
BITMAP
20
00
60
80
70
ENDCHAR
STARTCHAR Agrave
ENCODING 192
SWIDTH 750 0
DWIDTH 6 0
BBX 5 8 0 0
BITMAP
40
20
00
70
88
F8
88
88
ENDCHAR
STARTCHAR Aacute
ENCODING 193
SWIDTH 750 0
DWIDTH 6 0
BBX 5 8 0 0
BITMAP
10
20
00
70
88
F8
88
88
ENDCHAR
STARTCHAR Acircumflex
ENCODING 194
SWIDTH 750 0
DWIDTH 6 0
BBX 5 8 0 0
BITMAP
20
50
00
70
88
F8
88
88
ENDCHAR
STARTCHAR Atilde
ENCODING 195
SWIDTH 750 0
DWIDTH 6 0
BBX 5 8 0 0
BITMAP
28
50
00
70
88
F8
88
88
ENDCHAR
STARTCHAR Adieresis
ENCODING 196
SWIDTH 750 0
DWIDTH 6 0
BBX 5 7 0 0
BITMAP
50
00
70
88
F8
88
88
ENDCHAR
STARTCHAR Aring
ENCODING 197
SWIDTH 750 0
DWIDTH 6 0
BBX 5 8 0 0
BITMAP
20
50
20
70
88
F8
88
88
ENDCHAR
STARTCHAR AE
ENCODING 198
SWIDTH 1250 0
DWIDTH 10 0
BBX 9 5 0 0
BITMAP
7F80
8800
FF00
8800
8F80
ENDCHAR
STARTCHAR Ccedilla
ENCODING 199
SWIDTH 750 0
DWIDTH 6 0
BBX 5 7 0 -2
BITMAP
70
88
80
88
70
20
40
ENDCHAR
STARTCHAR Egrave
ENCODING 200
SWIDTH 750 0
DWIDTH 6 0
BBX 5 8 0 0
BITMAP
40
20
00
F8
80
F0
80
F8
ENDCHAR
STARTCHAR Eacute
ENCODING 201
SWIDTH 750 0
DWIDTH 6 0
BBX 5 8 0 0
BITMAP
10
20
00
F8
80
F0
80
F8
ENDCHAR
STARTCHAR Ecircumflex
ENCODING 202
SWIDTH 750 0
DWIDTH 6 0
BBX 5 8 0 0
BITMAP
20
50
00
F8
80
F0
80
F8
ENDCHAR
STARTCHAR Edieresis
ENCODING 203
SWIDTH 750 0
DWIDTH 6 0
BBX 5 7 0 0
BITMAP
50
00
F8
80
F0
80
F8
ENDCHAR
STARTCHAR Igrave
ENCODING 204
SWIDTH 250 0
DWIDTH 2 0
BBX 2 8 -1 0
BITMAP
80
40
00
40
40
40
40
40
ENDCHAR
STARTCHAR Iacute
ENCODING 205
SWIDTH 250 0
DWIDTH 2 0
BBX 2 8 0 0
BITMAP
40
80
00
80
80
80
80
80
ENDCHAR
STARTCHAR Icircumflex
ENCODING 206
SWIDTH 250 0
DWIDTH 2 0
BBX 3 8 -1 0
BITMAP
40
A0
00
40
40
40
40
40
ENDCHAR
STARTCHAR Idieresis
ENCODING 207
SWIDTH 250 0
DWIDTH 2 0
BBX 3 7 -1 0
BITMAP
A0
00
40
40
40
40
40
ENDCHAR
STARTCHAR Eth
ENCODING 208
SWIDTH 875 0
DWIDTH 7 0
BBX 6 5 0 0
BITMAP
78
44
E4
44
78
ENDCHAR
STARTCHAR Ntilde
ENCODING 209
SWIDTH 750 0
DWIDTH 6 0
BBX 5 8 0 0
BITMAP
28
50
00
88
C8
A8
98
88
ENDCHAR
STARTCHAR Ograve
ENCODING 210
SWIDTH 750 0
DWIDTH 6 0
BBX 5 8 0 0
BITMAP
40
20
00
70
88
88
88
70
ENDCHAR
STARTCHAR Oacute
ENCODING 211
SWIDTH 750 0
DWIDTH 6 0
BBX 5 8 0 0
BITMAP
10
20
00
70
88
88
88
70
ENDCHAR
STARTCHAR Ocircumflex
ENCODING 212
SWIDTH 750 0
DWIDTH 6 0
BBX 5 8 0 0
BITMAP
20
50
00
70
88
88
88
70
ENDCHAR
STARTCHAR Otilde
ENCODING 213
SWIDTH 750 0
DWIDTH 6 0
BBX 5 8 0 0
BITMAP
28
50
00
70
88
88
88
70
ENDCHAR
STARTCHAR Odieresis
ENCODING 214
SWIDTH 750 0
DWIDTH 6 0
BBX 5 7 0 0
BITMAP
50
00
70
88
88
88
70
ENDCHAR
STARTCHAR multiply
ENCODING 215
SWIDTH 625 0
DWIDTH 5 0
BBX 4 4 0 0
BITMAP
90
60
60
90
ENDCHAR
STARTCHAR Oslash
ENCODING 216
SWIDTH 750 0
DWIDTH 6 0
BBX 5 5 0 0
BITMAP
70
98
A8
C8
70
ENDCHAR
STARTCHAR Ugrave
ENCODING 217
SWIDTH 750 0
DWIDTH 6 0
BBX 5 8 0 0
BITMAP
40
20
00
88
88
88
88
70
ENDCHAR
STARTCHAR Uacute
ENCODING 218
SWIDTH 750 0
DWIDTH 6 0
BBX 5 8 0 0
BITMAP
10
20
00
88
88
88
88
70
ENDCHAR
STARTCHAR Ucircumflex
ENCODING 219
SWIDTH 750 0
DWIDTH 6 0
BBX 5 8 0 0
BITMAP
20
50
00
88
88
88
88
70
ENDCHAR
STARTCHAR Udieresis
ENCODING 220
SWIDTH 750 0
DWIDTH 6 0
BBX 5 7 0 0
BITMAP
50
00
88
88
88
88
70
ENDCHAR
STARTCHAR Yacute
ENCODING 221
SWIDTH 750 0
DWIDTH 6 0
BBX 5 8 0 0
BITMAP
10
20
00
88
50
20
20
20
ENDCHAR
STARTCHAR Thorn
ENCODING 222
SWIDTH 625 0
DWIDTH 5 0
BBX 4 5 0 0
BITMAP
80
E0
90
E0
80
ENDCHAR
STARTCHAR germandbls
ENCODING 223
SWIDTH 625 0
DWIDTH 5 0
BBX 4 5 0 0
BITMAP
60
90
A0
90
A0
ENDCHAR
STARTCHAR agrave
ENCODING 224
SWIDTH 625 0
DWIDTH 5 0
BBX 4 7 0 0
BITMAP
40
20
00
60
90
90
70
ENDCHAR
STARTCHAR aacute
ENCODING 225
SWIDTH 625 0
DWIDTH 5 0
BBX 4 7 0 0
BITMAP
20
40
00
60
90
90
70
ENDCHAR
STARTCHAR acircumflex
ENCODING 226
SWIDTH 625 0
DWIDTH 5 0
BBX 4 7 0 0
BITMAP
60
90
00
60
90
90
70
ENDCHAR
STARTCHAR atilde
ENCODING 227
SWIDTH 625 0
DWIDTH 5 0
BBX 4 7 0 0
BITMAP
50
A0
00
60
90
90
70
ENDCHAR
STARTCHAR adieresis
ENCODING 228
SWIDTH 625 0
DWIDTH 5 0
BBX 4 6 0 0
BITMAP
90
00
60
90
90
70
ENDCHAR
STARTCHAR aring
ENCODING 229
SWIDTH 625 0
DWIDTH 5 0
BBX 4 6 0 0
BITMAP
60
90
60
90
90
70
ENDCHAR
STARTCHAR ae
ENCODING 230
SWIDTH 1000 0
DWIDTH 8 0
BBX 7 4 0 0
BITMAP
6E
92
94
7E
ENDCHAR
STARTCHAR ccedilla
ENCODING 231
SWIDTH 625 0
DWIDTH 5 0
BBX 4 6 0 -2
BITMAP
70
80
80
70
20
40
ENDCHAR
STARTCHAR egrave
ENCODING 232
SWIDTH 625 0
DWIDTH 5 0
BBX 4 7 0 0
BITMAP
40
20
00
70
90
A0
70
ENDCHAR
STARTCHAR eacute
ENCODING 233
SWIDTH 625 0
DWIDTH 5 0
BBX 4 7 0 0
BITMAP
20
40
00
70
90
A0
70
ENDCHAR
STARTCHAR ecircumflex
ENCODING 234
SWIDTH 625 0
DWIDTH 5 0
BBX 4 7 0 0
BITMAP
60
90
00
70
90
A0
70
ENDCHAR
STARTCHAR edieresis
ENCODING 235
SWIDTH 625 0
DWIDTH 5 0
BBX 4 6 0 0
BITMAP
90
00
70
90
A0
70
ENDCHAR
STARTCHAR igrave
ENCODING 236
SWIDTH 250 0
DWIDTH 2 0
BBX 2 6 -1 0
BITMAP
80
40
00
40
40
40
ENDCHAR
STARTCHAR iacute
ENCODING 237
SWIDTH 250 0
DWIDTH 2 0
BBX 2 6 0 0
BITMAP
40
80
00
80
80
80
ENDCHAR
STARTCHAR icircumflex
ENCODING 238
SWIDTH 250 0
DWIDTH 2 0
BBX 3 6 -1 0
BITMAP
40
A0
00
40
40
40
ENDCHAR
STARTCHAR idieresis
ENCODING 239
SWIDTH 250 0
DWIDTH 2 0
BBX 3 5 -1 0
BITMAP
A0
00
40
40
40
ENDCHAR
STARTCHAR eth
ENCODING 240
SWIDTH 625 0
DWIDTH 5 0
BBX 4 6 0 0
BITMAP
50
20
70
90
90
70
ENDCHAR
STARTCHAR ntilde
ENCODING 241
SWIDTH 625 0
DWIDTH 5 0
BBX 4 7 0 0
BITMAP
50
A0
00
E0
90
90
90
ENDCHAR
STARTCHAR ograve
ENCODING 242
SWIDTH 625 0
DWIDTH 5 0
BBX 4 7 0 0
BITMAP
40
20
00
60
90
90
60
ENDCHAR
STARTCHAR oacute
ENCODING 243
SWIDTH 625 0
DWIDTH 5 0
BBX 4 7 0 0
BITMAP
20
40
00
60
90
90
60
ENDCHAR
STARTCHAR ocircumflex
ENCODING 244
SWIDTH 625 0
DWIDTH 5 0
BBX 4 7 0 0
BITMAP
60
90
00
60
90
90
60
ENDCHAR
STARTCHAR otilde
ENCODING 245
SWIDTH 625 0
DWIDTH 5 0
BBX 4 7 0 0
BITMAP
50
A0
00
60
90
90
60
ENDCHAR
STARTCHAR odieresis
ENCODING 246
SWIDTH 625 0
DWIDTH 5 0
BBX 4 6 0 0
BITMAP
90
00
60
90
90
60
ENDCHAR
STARTCHAR divide
ENCODING 247
SWIDTH 750 0
DWIDTH 6 0
BBX 5 5 0 0
BITMAP
20
00
F8
00
20
ENDCHAR
STARTCHAR oslash
ENCODING 248
SWIDTH 625 0
DWIDTH 5 0
BBX 4 4 0 0
BITMAP
60
B0
D0
60
ENDCHAR
STARTCHAR ugrave
ENCODING 249
SWIDTH 625 0
DWIDTH 5 0
BBX 4 7 0 0
BITMAP
40
20
00
90
90
90
70
ENDCHAR
STARTCHAR uacute
ENCODING 250
SWIDTH 625 0
DWIDTH 5 0
BBX 4 7 0 0
BITMAP
20
40
00
90
90
90
70
ENDCHAR
STARTCHAR ucircumflex
ENCODING 251
SWIDTH 625 0
DWIDTH 5 0
BBX 4 7 0 0
BITMAP
60
90
00
90
90
90
70
ENDCHAR
STARTCHAR udieresis
ENCODING 252
SWIDTH 625 0
DWIDTH 5 0
BBX 4 6 0 0
BITMAP
90
00
90
90
90
70
ENDCHAR
STARTCHAR yacute
ENCODING 253
SWIDTH 625 0
DWIDTH 5 0
BBX 4 9 0 -2
BITMAP
20
40
00
90
90
90
70
10
60
ENDCHAR
STARTCHAR thorn
ENCODING 254
SWIDTH 625 0
DWIDTH 5 0
BBX 4 7 0 -2
BITMAP
80
80
E0
90
E0
80
80
ENDCHAR
STARTCHAR ydieresis
ENCODING 255
SWIDTH 625 0
DWIDTH 5 0
BBX 4 8 0 -2
BITMAP
90
00
90
90
90
70
10
60
ENDCHAR
STARTCHAR Amacron
ENCODING 256
SWIDTH 750 0
DWIDTH 6 0
BBX 5 7 0 0
BITMAP
70
00
70
88
F8
88
88
ENDCHAR
STARTCHAR amacron
ENCODING 257
SWIDTH 625 0
DWIDTH 5 0
BBX 4 6 0 0
BITMAP
F0
00
60
90
90
70
ENDCHAR
STARTCHAR Abreve
ENCODING 258
SWIDTH 750 0
DWIDTH 6 0
BBX 5 8 0 0
BITMAP
50
20
00
70
88
F8
88
88
ENDCHAR
STARTCHAR abreve
ENCODING 259
SWIDTH 625 0
DWIDTH 5 0
BBX 4 7 0 0
BITMAP
90
60
00
60
90
90
70
ENDCHAR
STARTCHAR Aogonek
ENCODING 260
SWIDTH 750 0
DWIDTH 6 0
BBX 5 7 0 -2
BITMAP
70
88
F8
88
88
10
08
ENDCHAR
STARTCHAR aogonek
ENCODING 261
SWIDTH 625 0
DWIDTH 5 0
BBX 4 6 0 -2
BITMAP
60
90
90
70
20
10
ENDCHAR
STARTCHAR Cacute
ENCODING 262
SWIDTH 750 0
DWIDTH 6 0
BBX 5 8 0 0
BITMAP
10
20
00
70
88
80
88
70
ENDCHAR
STARTCHAR cacute
ENCODING 263
SWIDTH 625 0
DWIDTH 5 0
BBX 4 7 0 0
BITMAP
20
40
00
70
80
80
70
ENDCHAR
STARTCHAR Ccircumflex
ENCODING 264
SWIDTH 750 0
DWIDTH 6 0
BBX 5 8 0 0
BITMAP
20
50
00
70
88
80
88
70
ENDCHAR
STARTCHAR ccircumflex
ENCODING 265
SWIDTH 625 0
DWIDTH 5 0
BBX 4 7 0 0
BITMAP
60
90
00
70
80
80
70
ENDCHAR
STARTCHAR Cdot
ENCODING 266
SWIDTH 750 0
DWIDTH 6 0
BBX 5 7 0 0
BITMAP
20
00
70
88
80
88
70
ENDCHAR
STARTCHAR cdot
ENCODING 267
SWIDTH 750 0
DWIDTH 6 0
BBX 4 6 0 0
BITMAP
20
00
70
80
80
70
ENDCHAR
STARTCHAR Ccaron
ENCODING 268
SWIDTH 750 0
DWIDTH 6 0
BBX 5 8 0 0
BITMAP
50
20
00
70
88
80
88
70
ENDCHAR
STARTCHAR ccaron
ENCODING 269
SWIDTH 625 0
DWIDTH 5 0
BBX 4 7 0 0
BITMAP
90
60
00
70
80
80
70
ENDCHAR
STARTCHAR Dcaron
ENCODING 270
SWIDTH 750 0
DWIDTH 6 0
BBX 5 8 0 0
BITMAP
50
20
00
F0
88
88
88
F0
ENDCHAR
STARTCHAR dcaron
ENCODING 271
SWIDTH 875 0
DWIDTH 7 0
BBX 6 5 0 0
BITMAP
14
74
90
90
70
ENDCHAR
STARTCHAR Dmacron
ENCODING 272
SWIDTH 875 0
DWIDTH 7 0
BBX 6 5 0 0
BITMAP
78
44
E4
44
78
ENDCHAR
STARTCHAR dcroat
ENCODING 273
SWIDTH 625 0
DWIDTH 5 0
BBX 4 6 0 0
BITMAP
50
20
70
90
90
70
ENDCHAR
STARTCHAR Emacron
ENCODING 274
SWIDTH 750 0
DWIDTH 6 0
BBX 5 7 0 0
BITMAP
70
00
F8
80
F0
80
F8
ENDCHAR
STARTCHAR emacron
ENCODING 275
SWIDTH 625 0
DWIDTH 5 0
BBX 4 6 0 0
BITMAP
F0
00
70
90
A0
70
ENDCHAR
STARTCHAR Ebreve
ENCODING 276
SWIDTH 750 0
DWIDTH 6 0
BBX 5 8 0 0
BITMAP
50
20
00
F8
80
F0
80
F8
ENDCHAR
STARTCHAR ebreve
ENCODING 277
SWIDTH 625 0
DWIDTH 5 0
BBX 4 7 0 0
BITMAP
90
60
00
70
90
A0
70
ENDCHAR
STARTCHAR Edot
ENCODING 278
SWIDTH 750 0
DWIDTH 6 0
BBX 5 7 0 0
BITMAP
20
00
F8
80
F0
80
F8
ENDCHAR
STARTCHAR edot
ENCODING 279
SWIDTH 625 0
DWIDTH 5 0
BBX 4 6 0 0
BITMAP
20
00
70
90
A0
70
ENDCHAR
STARTCHAR Eogonek
ENCODING 280
SWIDTH 750 0
DWIDTH 6 0
BBX 5 7 0 -2
BITMAP
F8
80
F0
80
F8
10
08
ENDCHAR
STARTCHAR eogonek
ENCODING 281
SWIDTH 625 0
DWIDTH 5 0
BBX 4 6 0 -2
BITMAP
70
90
A0
70
20
10
ENDCHAR
STARTCHAR Ecaron
ENCODING 282
SWIDTH 750 0
DWIDTH 6 0
BBX 5 8 0 0
BITMAP
50
20
00
F8
80
F0
80
F8
ENDCHAR
STARTCHAR ecaron
ENCODING 283
SWIDTH 625 0
DWIDTH 5 0
BBX 4 7 0 0
BITMAP
90
60
00
70
90
A0
70
ENDCHAR
STARTCHAR Gcircumflex
ENCODING 284
SWIDTH 750 0
DWIDTH 6 0
BBX 5 8 0 0
BITMAP
20
50
00
78
80
B8
88
78
ENDCHAR
STARTCHAR gcircumflex
ENCODING 285
SWIDTH 625 0
DWIDTH 5 0
BBX 4 9 0 -2
BITMAP
60
90
00
60
90
90
70
10
60
ENDCHAR
STARTCHAR Gbreve
ENCODING 286
SWIDTH 750 0
DWIDTH 6 0
BBX 5 8 0 0
BITMAP
50
20
00
78
80
B8
88
78
ENDCHAR
STARTCHAR gbreve
ENCODING 287
SWIDTH 625 0
DWIDTH 5 0
BBX 4 9 0 -2
BITMAP
90
60
00
60
90
90
70
10
60
ENDCHAR
STARTCHAR Gdot
ENCODING 288
SWIDTH 750 0
DWIDTH 6 0
BBX 5 7 0 0
BITMAP
20
00
78
80
B8
88
78
ENDCHAR
STARTCHAR gdot
ENCODING 289
SWIDTH 625 0
DWIDTH 5 0
BBX 4 8 0 -2
BITMAP
20
00
60
90
90
70
10
60
ENDCHAR
STARTCHAR Gcedilla
ENCODING 290
SWIDTH 750 0
DWIDTH 6 0
BBX 5 7 0 -2
BITMAP
78
80
B8
88
78
10
20
ENDCHAR
STARTCHAR gcedilla
ENCODING 291
SWIDTH 625 0
DWIDTH 5 0
BBX 4 9 0 -2
BITMAP
20
40
00
60
90
90
70
10
60
ENDCHAR
STARTCHAR Hcircumflex
ENCODING 292
SWIDTH 750 0
DWIDTH 6 0
BBX 5 8 0 0
BITMAP
20
50
00
88
88
F8
88
88
ENDCHAR
STARTCHAR hcircumflex
ENCODING 293
SWIDTH 625 0
DWIDTH 5 0
BBX 4 8 0 0
BITMAP
60
90
00
80
E0
90
90
90
ENDCHAR
STARTCHAR Hbar
ENCODING 294
SWIDTH 1000 0
DWIDTH 8 0
BBX 7 5 0 0
BITMAP
FE
44
7C
44
44
ENDCHAR
STARTCHAR hbar
ENCODING 295
SWIDTH 750 0
DWIDTH 6 0
BBX 5 5 0 0
BITMAP
F0
40
70
48
48
ENDCHAR
STARTCHAR Itilde
ENCODING 296
SWIDTH 250 0
DWIDTH 2 0
BBX 4 8 -1 0
BITMAP
50
A0
00
40
40
40
40
40
ENDCHAR
STARTCHAR itilde
ENCODING 297
SWIDTH 250 0
DWIDTH 2 0
BBX 4 6 -1 0
BITMAP
50
A0
00
40
40
40
ENDCHAR
STARTCHAR Imacron
ENCODING 298
SWIDTH 250 0
DWIDTH 2 0
BBX 3 7 -1 0
BITMAP
E0
00
40
40
40
40
40
ENDCHAR
STARTCHAR imacron
ENCODING 299
SWIDTH 250 0
DWIDTH 2 0
BBX 3 5 -1 0
BITMAP
E0
00
40
40
40
ENDCHAR
STARTCHAR Ibreve
ENCODING 300
SWIDTH 250 0
DWIDTH 2 0
BBX 3 8 -1 0
BITMAP
A0
40
00
40
40
40
40
40
ENDCHAR
STARTCHAR ibreve
ENCODING 301
SWIDTH 250 0
DWIDTH 2 0
BBX 3 6 -1 0
BITMAP
A0
40
00
40
40
40
ENDCHAR
STARTCHAR Iogonek
ENCODING 302
SWIDTH 375 0
DWIDTH 3 0
BBX 2 7 0 -2
BITMAP
40
40
40
40
40
80
40
ENDCHAR
STARTCHAR iogonek
ENCODING 303
SWIDTH 375 0
DWIDTH 3 0
BBX 2 7 0 -2
BITMAP
40
00
40
40
40
80
40
ENDCHAR
STARTCHAR Idotaccent
ENCODING 304
SWIDTH 250 0
DWIDTH 2 0
BBX 1 7 0 0
BITMAP
80
00
80
80
80
80
80
ENDCHAR
STARTCHAR dotlessi
ENCODING 305
SWIDTH 250 0
DWIDTH 2 0
BBX 1 3 0 0
BITMAP
80
80
80
ENDCHAR
STARTCHAR IJ
ENCODING 306
SWIDTH 625 0
DWIDTH 5 0
BBX 4 5 0 0
BITMAP
90
90
90
90
A0
ENDCHAR
STARTCHAR ij
ENCODING 307
SWIDTH 500 0
DWIDTH 4 0
BBX 3 7 0 -2
BITMAP
A0
00
A0
A0
A0
20
40
ENDCHAR
STARTCHAR Jcircumflex
ENCODING 308
SWIDTH 500 0
DWIDTH 4 0
BBX 4 8 0 0
BITMAP
20
50
00
20
20
20
20
C0
ENDCHAR
STARTCHAR jcircumflex
ENCODING 309
SWIDTH 375 0
DWIDTH 3 0
BBX 3 8 0 -2
BITMAP
40
A0
00
40
40
40
40
80
ENDCHAR
STARTCHAR Kcedilla
ENCODING 310
SWIDTH 750 0
DWIDTH 6 0
BBX 5 7 0 -2
BITMAP
88
90
E0
90
88
20
40
ENDCHAR
STARTCHAR kcedilla
ENCODING 311
SWIDTH 750 0
DWIDTH 6 0
BBX 4 7 0 -2
BITMAP
80
90
A0
D0
90
40
80
ENDCHAR
STARTCHAR kra
ENCODING 312
SWIDTH 625 0
DWIDTH 5 0
BBX 4 4 0 0
BITMAP
90
A0
D0
90
ENDCHAR
STARTCHAR Lacute
ENCODING 313
SWIDTH 625 0
DWIDTH 5 0
BBX 4 8 0 0
BITMAP
40
80
00
80
80
80
80
F0
ENDCHAR
STARTCHAR lacute
ENCODING 314
SWIDTH 250 0
DWIDTH 2 0
BBX 2 8 0 0
BITMAP
40
80
00
80
80
80
80
80
ENDCHAR
STARTCHAR Lcedilla
ENCODING 315
SWIDTH 625 0
DWIDTH 5 0
BBX 4 7 0 -2
BITMAP
80
80
80
80
F0
20
40
ENDCHAR
STARTCHAR lcedilla
ENCODING 316
SWIDTH 125 0
DWIDTH 1 0
BBX 2 7 -1 -2
BITMAP
80
80
80
80
80
40
80
ENDCHAR
STARTCHAR Lcaron
ENCODING 317
SWIDTH 625 0
DWIDTH 5 0
BBX 4 5 0 0
BITMAP
90
A0
80
80
F0
ENDCHAR
STARTCHAR lcaron
ENCODING 318
SWIDTH 625 0
DWIDTH 5 0
BBX 4 5 0 0
BITMAP
90
A0
80
80
80
ENDCHAR
STARTCHAR Ldot
ENCODING 319
SWIDTH 750 0
DWIDTH 6 0
BBX 5 5 0 0
BITMAP
80
80
88
80
F0
ENDCHAR
STARTCHAR ldot
ENCODING 320
SWIDTH 500 0
DWIDTH 4 0
BBX 3 5 0 0
BITMAP
80
80
A0
80
80
ENDCHAR
STARTCHAR Lslash
ENCODING 321
SWIDTH 750 0
DWIDTH 6 0
BBX 5 5 0 0
BITMAP
40
60
40
C0
78
ENDCHAR
STARTCHAR lslash
ENCODING 322
SWIDTH 500 0
DWIDTH 4 0
BBX 3 5 0 0
BITMAP
40
60
40
C0
40
ENDCHAR
STARTCHAR Nacute
ENCODING 323
SWIDTH 750 0
DWIDTH 6 0
BBX 5 8 0 0
BITMAP
10
20
00
88
C8
A8
98
88
ENDCHAR
STARTCHAR nacute
ENCODING 324
SWIDTH 625 0
DWIDTH 5 0
BBX 4 7 0 0
BITMAP
20
40
00
E0
90
90
90
ENDCHAR
STARTCHAR Ncedilla
ENCODING 325
SWIDTH 750 0
DWIDTH 6 0
BBX 5 7 0 -2
BITMAP
88
C8
A8
98
88
20
40
ENDCHAR
STARTCHAR ncedilla
ENCODING 326
SWIDTH 625 0
DWIDTH 5 0
BBX 4 6 0 -2
BITMAP
E0
90
90
90
40
80
ENDCHAR
STARTCHAR Ncaron
ENCODING 327
SWIDTH 750 0
DWIDTH 6 0
BBX 5 8 0 0
BITMAP
50
20
00
88
C8
A8
98
88
ENDCHAR
STARTCHAR ncaron
ENCODING 328
SWIDTH 625 0
DWIDTH 5 0
BBX 4 7 0 0
BITMAP
90
60
00
E0
90
90
90
ENDCHAR
STARTCHAR napostrophe
ENCODING 329
SWIDTH 875 0
DWIDTH 7 0
BBX 6 5 0 0
BITMAP
40
B8
24
24
24
ENDCHAR
STARTCHAR Eng
ENCODING 330
SWIDTH 750 0
DWIDTH 6 0
BBX 5 6 0 -1
BITMAP
88
C8
A8
98
88
10
ENDCHAR
STARTCHAR eng
ENCODING 331
SWIDTH 625 0
DWIDTH 5 0
BBX 4 5 0 -1
BITMAP
E0
90
90
90
20
ENDCHAR
STARTCHAR Omacron
ENCODING 332
SWIDTH 750 0
DWIDTH 6 0
BBX 5 7 0 0
BITMAP
70
00
70
88
88
88
70
ENDCHAR
STARTCHAR omacron
ENCODING 333
SWIDTH 625 0
DWIDTH 5 0
BBX 4 6 0 0
BITMAP
F0
00
60
90
90
60
ENDCHAR
STARTCHAR Obreve
ENCODING 334
SWIDTH 750 0
DWIDTH 6 0
BBX 5 8 0 0
BITMAP
50
20
00
70
88
88
88
70
ENDCHAR
STARTCHAR obreve
ENCODING 335
SWIDTH 625 0
DWIDTH 5 0
BBX 4 7 0 0
BITMAP
90
60
00
60
90
90
60
ENDCHAR
STARTCHAR Odblacute
ENCODING 336
SWIDTH 750 0
DWIDTH 6 0
BBX 5 8 0 0
BITMAP
28
50
00
70
88
88
88
70
ENDCHAR
STARTCHAR odblacute
ENCODING 337
SWIDTH 625 0
DWIDTH 5 0
BBX 4 7 0 0
BITMAP
50
A0
00
60
90
90
60
ENDCHAR
STARTCHAR OE
ENCODING 338
SWIDTH 1250 0
DWIDTH 10 0
BBX 9 5 0 0
BITMAP
7F80
8800
8F00
8800
7F80
ENDCHAR
STARTCHAR oe
ENCODING 339
SWIDTH 1000 0
DWIDTH 8 0
BBX 7 4 0 0
BITMAP
6E
92
94
6E
ENDCHAR
STARTCHAR Racute
ENCODING 340
SWIDTH 750 0
DWIDTH 6 0
BBX 5 8 0 0
BITMAP
20
40
00
F0
88
F0
90
88
ENDCHAR
STARTCHAR racute
ENCODING 341
SWIDTH 500 0
DWIDTH 4 0
BBX 3 7 0 0
BITMAP
20
40
00
A0
C0
80
80
ENDCHAR
STARTCHAR Rcedilla
ENCODING 342
SWIDTH 750 0
DWIDTH 6 0
BBX 5 7 0 -2
BITMAP
F0
88
F0
90
88
20
40
ENDCHAR
STARTCHAR rcedilla
ENCODING 343
SWIDTH 500 0
DWIDTH 4 0
BBX 3 6 0 -2
BITMAP
A0
C0
80
80
40
80
ENDCHAR
STARTCHAR Rcaron
ENCODING 344
SWIDTH 750 0
DWIDTH 6 0
BBX 5 8 0 0
BITMAP
50
20
00
F0
88
F0
90
88
ENDCHAR
STARTCHAR rcaron
ENCODING 345
SWIDTH 500 0
DWIDTH 4 0
BBX 3 7 0 0
BITMAP
A0
40
00
A0
C0
80
80
ENDCHAR
STARTCHAR Sacute
ENCODING 346
SWIDTH 750 0
DWIDTH 6 0
BBX 5 8 0 0
BITMAP
10
20
00
78
80
70
08
F0
ENDCHAR
STARTCHAR sacute
ENCODING 347
SWIDTH 625 0
DWIDTH 5 0
BBX 4 7 0 0
BITMAP
20
40
00
70
C0
30
E0
ENDCHAR
STARTCHAR Scircumflex
ENCODING 348
SWIDTH 750 0
DWIDTH 6 0
BBX 5 8 0 0
BITMAP
20
50
00
78
80
70
08
F0
ENDCHAR
STARTCHAR scircumflex
ENCODING 349
SWIDTH 625 0
DWIDTH 5 0
BBX 4 7 0 0
BITMAP
60
90
00
70
C0
30
E0
ENDCHAR
STARTCHAR Scedilla
ENCODING 350
SWIDTH 750 0
DWIDTH 6 0
BBX 5 7 0 -2
BITMAP
78
80
70
08
F0
20
40
ENDCHAR
STARTCHAR scedilla
ENCODING 351
SWIDTH 625 0
DWIDTH 5 0
BBX 4 6 0 -2
BITMAP
70
C0
30
E0
40
80
ENDCHAR
STARTCHAR Scaron
ENCODING 352
SWIDTH 750 0
DWIDTH 6 0
BBX 5 8 0 0
BITMAP
50
20
00
78
80
70
08
F0
ENDCHAR
STARTCHAR scaron
ENCODING 353
SWIDTH 625 0
DWIDTH 5 0
BBX 4 7 0 0
BITMAP
90
60
00
70
C0
30
E0
ENDCHAR
STARTCHAR Tcedilla
ENCODING 354
SWIDTH 750 0
DWIDTH 6 0
BBX 5 7 0 -2
BITMAP
F8
20
20
20
20
10
20
ENDCHAR
STARTCHAR tcedilla
ENCODING 355
SWIDTH 500 0
DWIDTH 4 0
BBX 3 7 0 -2
BITMAP
40
E0
40
40
40
20
40
ENDCHAR
STARTCHAR Tcaron
ENCODING 356
SWIDTH 750 0
DWIDTH 6 0
BBX 5 8 0 0
BITMAP
50
20
00
F8
20
20
20
20
ENDCHAR
STARTCHAR tcaron
ENCODING 357
SWIDTH 500 0
DWIDTH 4 0
BBX 4 6 0 0
BITMAP
20
50
E0
40
40
40
ENDCHAR
STARTCHAR Tbar
ENCODING 358
SWIDTH 750 0
DWIDTH 6 0
BBX 5 5 0 0
BITMAP
F8
20
70
20
20
ENDCHAR
STARTCHAR tbar
ENCODING 359
SWIDTH 500 0
DWIDTH 4 0
BBX 3 5 0 0
BITMAP
40
E0
40
E0
40
ENDCHAR
STARTCHAR Utilde
ENCODING 360
SWIDTH 750 0
DWIDTH 6 0
BBX 5 8 0 0
BITMAP
28
50
00
88
88
88
88
70
ENDCHAR
STARTCHAR utilde
ENCODING 361
SWIDTH 625 0
DWIDTH 5 0
BBX 4 7 0 0
BITMAP
50
A0
00
90
90
90
70
ENDCHAR
STARTCHAR Umacron
ENCODING 362
SWIDTH 750 0
DWIDTH 6 0
BBX 5 7 0 0
BITMAP
70
00
88
88
88
88
70
ENDCHAR
STARTCHAR umacron
ENCODING 363
SWIDTH 625 0
DWIDTH 5 0
BBX 4 6 0 0
BITMAP
F0
00
90
90
90
70
ENDCHAR
STARTCHAR Ubreve
ENCODING 364
SWIDTH 750 0
DWIDTH 6 0
BBX 5 8 0 0
BITMAP
50
20
00
88
88
88
88
70
ENDCHAR
STARTCHAR ubreve
ENCODING 365
SWIDTH 625 0
DWIDTH 5 0
BBX 4 7 0 0
BITMAP
90
60
00
90
90
90
70
ENDCHAR
STARTCHAR Uring
ENCODING 366
SWIDTH 750 0
DWIDTH 6 0
BBX 5 8 0 0
BITMAP
20
50
20
88
88
88
88
70
ENDCHAR
STARTCHAR uring
ENCODING 367
SWIDTH 625 0
DWIDTH 5 0
BBX 4 8 0 0
BITMAP
60
90
60
00
90
90
90
70
ENDCHAR
STARTCHAR Udblacute
ENCODING 368
SWIDTH 750 0
DWIDTH 6 0
BBX 5 8 0 0
BITMAP
28
50
00
88
88
88
88
70
ENDCHAR
STARTCHAR udblacute
ENCODING 369
SWIDTH 625 0
DWIDTH 5 0
BBX 4 7 0 0
BITMAP
50
A0
00
90
90
90
70
ENDCHAR
STARTCHAR Uogonek
ENCODING 370
SWIDTH 750 0
DWIDTH 6 0
BBX 5 7 0 -2
BITMAP
88
88
88
88
70
20
10
ENDCHAR
STARTCHAR uogonek
ENCODING 371
SWIDTH 625 0
DWIDTH 5 0
BBX 4 6 0 -2
BITMAP
90
90
90
70
20
10
ENDCHAR
STARTCHAR Wcircumflex
ENCODING 372
SWIDTH 1000 0
DWIDTH 8 0
BBX 7 8 0 0
BITMAP
10
28
00
92
92
92
92
6C
ENDCHAR
STARTCHAR wcircumflex
ENCODING 373
SWIDTH 1000 0
DWIDTH 8 0
BBX 7 7 0 0
BITMAP
10
28
00
92
92
92
6C
ENDCHAR
STARTCHAR Ycircumflex
ENCODING 374
SWIDTH 750 0
DWIDTH 6 0
BBX 5 8 0 0
BITMAP
20
50
00
88
50
20
20
20
ENDCHAR
STARTCHAR ycircumflex
ENCODING 375
SWIDTH 625 0
DWIDTH 5 0
BBX 4 9 0 -2
BITMAP
60
90
00
90
90
90
70
10
60
ENDCHAR
STARTCHAR Ydieresis
ENCODING 376
SWIDTH 750 0
DWIDTH 6 0
BBX 5 7 0 0
BITMAP
50
00
88
50
20
20
20
ENDCHAR
STARTCHAR Zacute
ENCODING 377
SWIDTH 750 0
DWIDTH 6 0
BBX 5 8 0 0
BITMAP
10
20
00
F8
10
20
40
F8
ENDCHAR
STARTCHAR zacute
ENCODING 378
SWIDTH 625 0
DWIDTH 5 0
BBX 4 7 0 0
BITMAP
20
40
00
F0
20
40
F0
ENDCHAR
STARTCHAR Zdot
ENCODING 379
SWIDTH 750 0
DWIDTH 6 0
BBX 5 7 0 0
BITMAP
20
00
F8
10
20
40
F8
ENDCHAR
STARTCHAR zdot
ENCODING 380
SWIDTH 625 0
DWIDTH 5 0
BBX 4 6 0 0
BITMAP
20
00
F0
20
40
F0
ENDCHAR
STARTCHAR Zcaron
ENCODING 381
SWIDTH 750 0
DWIDTH 6 0
BBX 5 8 0 0
BITMAP
50
20
00
F8
10
20
40
F8
ENDCHAR
STARTCHAR zcaron
ENCODING 382
SWIDTH 625 0
DWIDTH 5 0
BBX 4 7 0 0
BITMAP
90
60
00
F0
20
40
F0
ENDCHAR
STARTCHAR slong
ENCODING 383
SWIDTH 375 0
DWIDTH 3 0
BBX 2 5 0 0
BITMAP
40
80
80
80
80
ENDCHAR
STARTCHAR bbar
ENCODING 384
SWIDTH 625 0
DWIDTH 5 0
BBX 4 6 0 0
BITMAP
A0
40
E0
90
90
E0
ENDCHAR
STARTCHAR Bhook
ENCODING 385
SWIDTH 875 0
DWIDTH 7 0
BBX 6 5 0 0
BITMAP
F8
44
78
44
78
ENDCHAR
STARTCHAR Btopbar
ENCODING 386
SWIDTH 750 0
DWIDTH 6 0
BBX 5 5 0 0
BITMAP
F0
80
F0
88
F0
ENDCHAR
STARTCHAR btopbar
ENCODING 387
SWIDTH 625 0
DWIDTH 5 0
BBX 4 5 0 0
BITMAP
F0
80
E0
90
E0
ENDCHAR
STARTCHAR Tonesix
ENCODING 388
SWIDTH 875 0
DWIDTH 7 0
BBX 6 5 0 0
BITMAP
40
C0
78
44
78
ENDCHAR
STARTCHAR tonesix
ENCODING 389
SWIDTH 750 0
DWIDTH 6 0
BBX 5 5 0 0
BITMAP
40
C0
70
48
70
ENDCHAR
STARTCHAR Oopen
ENCODING 390
SWIDTH 750 0
DWIDTH 6 0
BBX 5 5 0 0
BITMAP
70
88
08
88
70
ENDCHAR
STARTCHAR Chook
ENCODING 391
SWIDTH 875 0
DWIDTH 7 0
BBX 6 5 0 0
BITMAP
74
88
80
88
70
ENDCHAR
STARTCHAR chook
ENCODING 392
SWIDTH 750 0
DWIDTH 6 0
BBX 5 5 0 0
BITMAP
08
70
80
80
70
ENDCHAR
STARTCHAR Dbar
ENCODING 393
SWIDTH 875 0
DWIDTH 7 0
BBX 6 5 0 0
BITMAP
78
44
E4
44
78
ENDCHAR
STARTCHAR Dhook
ENCODING 394
SWIDTH 875 0
DWIDTH 7 0
BBX 6 5 0 0
BITMAP
F8
44
44
44
78
ENDCHAR
STARTCHAR Dtopbar
ENCODING 395
SWIDTH 750 0
DWIDTH 6 0
BBX 5 5 0 0
BITMAP
78
08
78
88
78
ENDCHAR
STARTCHAR dtopbar
ENCODING 396
SWIDTH 625 0
DWIDTH 5 0
BBX 4 5 0 0
BITMAP
F0
10
70
90
70
ENDCHAR
STARTCHAR deltaturn
ENCODING 397
SWIDTH 625 0
DWIDTH 5 0
BBX 4 6 0 -2
BITMAP
60
90
90
60
10
60
ENDCHAR
STARTCHAR Eturn
ENCODING 398
SWIDTH 750 0
DWIDTH 6 0
BBX 5 5 0 0
BITMAP
F8
08
78
08
F8
ENDCHAR
STARTCHAR Schwa
ENCODING 399
SWIDTH 625 0
DWIDTH 5 0
BBX 4 4 0 0
BITMAP
E0
90
50
E0
ENDCHAR
STARTCHAR Epsilonlatin
ENCODING 400
SWIDTH 750 0
DWIDTH 6 0
BBX 5 5 0 0
BITMAP
70
88
60
88
70
ENDCHAR
STARTCHAR Fhook
ENCODING 401
SWIDTH 875 0
DWIDTH 7 0
BBX 6 6 0 -1
BITMAP
7C
40
78
40
40
80
ENDCHAR
STARTCHAR florin
ENCODING 402
SWIDTH 500 0
DWIDTH 4 0
BBX 3 6 0 -1
BITMAP
20
40
60
40
40
80
ENDCHAR
STARTCHAR Ghook
ENCODING 403
SWIDTH 875 0
DWIDTH 7 0
BBX 6 6 0 0
BITMAP
04
78
80
B8
88
78
ENDCHAR
STARTCHAR Gammalatin
ENCODING 404
SWIDTH 750 0
DWIDTH 6 0
BBX 5 5 0 0
BITMAP
88
88
50
20
20
ENDCHAR
STARTCHAR hv
ENCODING 405
SWIDTH 1000 0
DWIDTH 8 0
BBX 7 5 0 0
BITMAP
80
E2
92
92
8C
ENDCHAR
STARTCHAR Iotalatin
ENCODING 406
SWIDTH 375 0
DWIDTH 3 0
BBX 2 5 0 0
BITMAP
80
80
80
80
40
ENDCHAR
STARTCHAR Ibar
ENCODING 407
SWIDTH 500 0
DWIDTH 4 0
BBX 3 5 0 0
BITMAP
40
40
E0
40
40
ENDCHAR
STARTCHAR Khook
ENCODING 408
SWIDTH 750 0
DWIDTH 6 0
BBX 5 5 0 0
BITMAP
90
A8
E0
90
88
ENDCHAR
STARTCHAR khook
ENCODING 409
SWIDTH 625 0
DWIDTH 5 0
BBX 4 5 0 0
BITMAP
40
90
A0
D0
90
ENDCHAR
STARTCHAR lbar
ENCODING 410
SWIDTH 500 0
DWIDTH 4 0
BBX 3 5 0 0
BITMAP
40
40
E0
40
40
ENDCHAR
STARTCHAR lambdabar
ENCODING 411
SWIDTH 625 0
DWIDTH 5 0
BBX 4 5 0 -1
BITMAP
D0
20
70
90
90
ENDCHAR
STARTCHAR mcapturn
ENCODING 412
SWIDTH 1000 0
DWIDTH 8 0
BBX 7 4 0 0
BITMAP
92
92
92
6E
ENDCHAR
STARTCHAR Nhook
ENCODING 413
SWIDTH 875 0
DWIDTH 7 0
BBX 6 6 0 -1
BITMAP
44
64
54
4C
44
80
ENDCHAR
STARTCHAR nleg
ENCODING 414
SWIDTH 625 0
DWIDTH 5 0
BBX 4 5 0 -1
BITMAP
E0
90
90
90
10
ENDCHAR
STARTCHAR Obar
ENCODING 415
SWIDTH 750 0
DWIDTH 6 0
BBX 5 5 0 0
BITMAP
70
88
F8
88
70
ENDCHAR
STARTCHAR Ohorn
ENCODING 416
SWIDTH 875 0
DWIDTH 7 0
BBX 6 5 0 0
BITMAP
74
88
88
88
70
ENDCHAR
STARTCHAR ohorn
ENCODING 417
SWIDTH 750 0
DWIDTH 6 0
BBX 5 4 0 0
BITMAP
68
90
90
60
ENDCHAR
STARTCHAR OI
ENCODING 418
SWIDTH 875 0
DWIDTH 7 0
BBX 6 5 0 0
BITMAP
7C
94
94
64
04
ENDCHAR
STARTCHAR oi
ENCODING 419
SWIDTH 875 0
DWIDTH 7 0
BBX 6 5 0 -1
BITMAP
7C
94
94
64
04
ENDCHAR
STARTCHAR Phook
ENCODING 420
SWIDTH 875 0
DWIDTH 7 0
BBX 6 5 0 0
BITMAP
F8
44
78
40
40
ENDCHAR
STARTCHAR phook
ENCODING 421
SWIDTH 625 0
DWIDTH 5 0
BBX 4 6 0 -1
BITMAP
40
80
E0
90
E0
80
ENDCHAR
STARTCHAR YR
ENCODING 422
SWIDTH 750 0
DWIDTH 6 0
BBX 5 6 0 0
BITMAP
80
F0
88
F0
90
88
ENDCHAR
STARTCHAR Tonetwo
ENCODING 423
SWIDTH 750 0
DWIDTH 6 0
BBX 5 5 0 0
BITMAP
F0
08
70
80
78
ENDCHAR
STARTCHAR tonetwo
ENCODING 424
SWIDTH 625 0
DWIDTH 5 0
BBX 4 4 0 0
BITMAP
E0
30
C0
70
ENDCHAR
STARTCHAR Esh
ENCODING 425
SWIDTH 750 0
DWIDTH 6 0
BBX 5 5 0 0
BITMAP
F8
48
20
48
F8
ENDCHAR
STARTCHAR eshlooprev
ENCODING 426
SWIDTH 500 0
DWIDTH 4 0
BBX 3 6 0 -1
BITMAP
80
40
40
40
40
20
ENDCHAR
STARTCHAR tpalatalhook
ENCODING 427
SWIDTH 500 0
DWIDTH 4 0
BBX 3 7 0 -2
BITMAP
40
E0
40
40
40
20
40
ENDCHAR
STARTCHAR Thook
ENCODING 428
SWIDTH 750 0
DWIDTH 6 0
BBX 5 5 0 0
BITMAP
78
A0
20
20
20
ENDCHAR
STARTCHAR thook
ENCODING 429
SWIDTH 375 0
DWIDTH 3 0
BBX 2 5 0 0
BITMAP
40
80
C0
80
40
ENDCHAR
STARTCHAR Trthook
ENCODING 430
SWIDTH 750 0
DWIDTH 6 0
BBX 5 6 0 -1
BITMAP
F8
20
20
20
20
10
ENDCHAR
STARTCHAR Uhorn
ENCODING 431
SWIDTH 875 0
DWIDTH 7 0
BBX 6 6 0 0
BITMAP
04
88
88
88
88
70
ENDCHAR
STARTCHAR uhorn
ENCODING 432
SWIDTH 750 0
DWIDTH 6 0
BBX 5 5 0 0
BITMAP
08
90
90
90
70
ENDCHAR
STARTCHAR Upsilonlatin
ENCODING 433
SWIDTH 750 0
DWIDTH 6 0
BBX 5 5 0 0
BITMAP
50
88
88
88
70
ENDCHAR
STARTCHAR Vcursive
ENCODING 434
SWIDTH 750 0
DWIDTH 6 0
BBX 5 5 0 0
BITMAP
90
88
88
88
70
ENDCHAR
STARTCHAR Yhook
ENCODING 435
SWIDTH 875 0
DWIDTH 7 0
BBX 6 5 0 0
BITMAP
44
A8
10
10
10
ENDCHAR
STARTCHAR yhook
ENCODING 436
SWIDTH 750 0
DWIDTH 6 0
BBX 5 7 0 -2
BITMAP
08
90
90
90
70
10
60
ENDCHAR
STARTCHAR Zbar
ENCODING 437
SWIDTH 750 0
DWIDTH 6 0
BBX 5 5 0 0
BITMAP
F8
10
F8
40
F8
ENDCHAR
STARTCHAR zbar
ENCODING 438
SWIDTH 625 0
DWIDTH 5 0
BBX 4 4 0 0
BITMAP
F0
20
60
F0
ENDCHAR
STARTCHAR Yogh
ENCODING 439
SWIDTH 625 0
DWIDTH 5 0
BBX 4 5 0 0
BITMAP
F0
20
60
10
E0
ENDCHAR
STARTCHAR Yoghrev
ENCODING 440
SWIDTH 625 0
DWIDTH 5 0
BBX 4 5 0 0
BITMAP
F0
40
60
80
70
ENDCHAR
STARTCHAR yoghrev
ENCODING 441
SWIDTH 625 0
DWIDTH 5 0
BBX 4 5 0 -1
BITMAP
F0
40
60
80
70
ENDCHAR
STARTCHAR yoghtail
ENCODING 442
SWIDTH 625 0
DWIDTH 5 0
BBX 4 5 0 -1
BITMAP
F0
20
70
80
60
ENDCHAR
STARTCHAR twobar
ENCODING 443
SWIDTH 750 0
DWIDTH 6 0
BBX 5 5 0 0
BITMAP
F0
08
F8
40
F8
ENDCHAR
STARTCHAR Tonefive
ENCODING 444
SWIDTH 750 0
DWIDTH 6 0
BBX 5 5 0 0
BITMAP
F8
80
70
08
F0
ENDCHAR
STARTCHAR tonefive
ENCODING 445
SWIDTH 625 0
DWIDTH 5 0
BBX 4 5 0 -1
BITMAP
F0
80
60
10
E0
ENDCHAR
STARTCHAR glottalstopbarinv
ENCODING 446
SWIDTH 500 0
DWIDTH 4 0
BBX 3 5 0 0
BITMAP
40
E0
40
20
C0
ENDCHAR
STARTCHAR wynn
ENCODING 447
SWIDTH 625 0
DWIDTH 5 0
BBX 4 6 0 -2
BITMAP
E0
90
90
90
A0
C0
ENDCHAR
STARTCHAR pipe
ENCODING 448
SWIDTH 250 0
DWIDTH 2 0
BBX 1 5 0 0
BITMAP
80
80
80
80
80
ENDCHAR
STARTCHAR pipedbl
ENCODING 449
SWIDTH 500 0
DWIDTH 4 0
BBX 3 5 0 0
BITMAP
A0
A0
A0
A0
A0
ENDCHAR
STARTCHAR pipedblbar
ENCODING 450
SWIDTH 500 0
DWIDTH 4 0
BBX 3 5 0 0
BITMAP
40
E0
40
E0
40
ENDCHAR
STARTCHAR exclamlatin
ENCODING 451
SWIDTH 375 0
DWIDTH 3 0
BBX 1 5 1 0
BITMAP
80
80
80
00
80
ENDCHAR
STARTCHAR DZhacek
ENCODING 452
SWIDTH 1500 0
DWIDTH 12 0
BBX 11 8 0 0
BITMAP
0140
0080
0000
F3E0
8840
8880
8900
F3E0
ENDCHAR
STARTCHAR Dzhacek
ENCODING 453
SWIDTH 1375 0
DWIDTH 11 0
BBX 10 7 0 0
BITMAP
0240
0180
F000
8BC0
8880
8900
F3C0
ENDCHAR
STARTCHAR dzhacek
ENCODING 454
SWIDTH 1250 0
DWIDTH 10 0
BBX 9 7 0 0
BITMAP
0480
0300
1000
7780
9100
9200
7780
ENDCHAR
STARTCHAR LJ
ENCODING 455
SWIDTH 1000 0
DWIDTH 8 0
BBX 7 5 0 0
BITMAP
82
82
82
82
EC
ENDCHAR
STARTCHAR Lj
ENCODING 456
SWIDTH 750 0
DWIDTH 6 0
BBX 5 7 0 -2
BITMAP
88
80
88
88
E8
08
10
ENDCHAR
STARTCHAR lj
ENCODING 457
SWIDTH 500 0
DWIDTH 4 0
BBX 3 7 0 -2
BITMAP
A0
80
A0
A0
A0
20
40
ENDCHAR
STARTCHAR NJ
ENCODING 458
SWIDTH 1250 0
DWIDTH 10 0
BBX 9 5 0 0
BITMAP
8880
C880
A880
9880
8B00
ENDCHAR
STARTCHAR Nj
ENCODING 459
SWIDTH 1000 0
DWIDTH 8 0
BBX 7 7 0 -2
BITMAP
8A
C8
AA
9A
8A
02
04
ENDCHAR
STARTCHAR nj
ENCODING 460
SWIDTH 875 0
DWIDTH 7 0
BBX 6 7 0 -2
BITMAP
04
E0
94
94
94
04
08
ENDCHAR
STARTCHAR Ahacek
ENCODING 461
SWIDTH 750 0
DWIDTH 6 0
BBX 5 8 0 0
BITMAP
50
20
00
70
88
F8
88
88
ENDCHAR
STARTCHAR ahacek
ENCODING 462
SWIDTH 625 0
DWIDTH 5 0
BBX 4 7 0 0
BITMAP
90
60
00
60
90
90
70
ENDCHAR
STARTCHAR Ihacek
ENCODING 463
SWIDTH 250 0
DWIDTH 2 0
BBX 3 8 -1 0
BITMAP
A0
40
00
40
40
40
40
40
ENDCHAR
STARTCHAR ihacek
ENCODING 464
SWIDTH 250 0
DWIDTH 2 0
BBX 3 6 -1 0
BITMAP
A0
40
00
40
40
40
ENDCHAR
STARTCHAR Ohacek
ENCODING 465
SWIDTH 750 0
DWIDTH 6 0
BBX 5 8 0 0
BITMAP
50
20
00
70
88
88
88
70
ENDCHAR
STARTCHAR ohacek
ENCODING 466
SWIDTH 625 0
DWIDTH 5 0
BBX 4 7 0 0
BITMAP
90
60
00
60
90
90
60
ENDCHAR
STARTCHAR Uhacek
ENCODING 467
SWIDTH 750 0
DWIDTH 6 0
BBX 5 8 0 0
BITMAP
50
20
00
88
88
88
88
70
ENDCHAR
STARTCHAR uhacek
ENCODING 468
SWIDTH 625 0
DWIDTH 5 0
BBX 4 7 0 0
BITMAP
90
60
00
90
90
90
70
ENDCHAR
STARTCHAR Udieresismacron
ENCODING 469
SWIDTH 750 0
DWIDTH 6 0
BBX 5 8 0 0
BITMAP
70
50
00
88
88
88
88
70
ENDCHAR
STARTCHAR udieresismacron
ENCODING 470
SWIDTH 625 0
DWIDTH 5 0
BBX 4 7 0 0
BITMAP
F0
90
00
90
90
90
70
ENDCHAR
STARTCHAR Udieresisacute
ENCODING 471
SWIDTH 750 0
DWIDTH 6 0
BBX 5 9 0 0
BITMAP
20
40
90
00
88
88
88
88
70
ENDCHAR
STARTCHAR udieresisacute
ENCODING 472
SWIDTH 625 0
DWIDTH 5 0
BBX 4 8 0 0
BITMAP
20
40
90
00
90
90
90
70
ENDCHAR
STARTCHAR Udieresishacek
ENCODING 473
SWIDTH 750 0
DWIDTH 6 0
BBX 5 9 0 0
BITMAP
50
20
50
00
88
88
88
88
70
ENDCHAR
STARTCHAR udieresishacek
ENCODING 474
SWIDTH 625 0
DWIDTH 5 0
BBX 4 8 0 0
BITMAP
90
60
90
00
90
90
90
70
ENDCHAR
STARTCHAR Udieresisgrave
ENCODING 475
SWIDTH 750 0
DWIDTH 6 0
BBX 5 9 0 0
BITMAP
40
20
90
00
88
88
88
88
70
ENDCHAR
STARTCHAR udieresisgrave
ENCODING 476
SWIDTH 625 0
DWIDTH 5 0
BBX 4 8 0 0
BITMAP
40
20
90
00
90
90
90
70
ENDCHAR
STARTCHAR eturn
ENCODING 477
SWIDTH 625 0
DWIDTH 5 0
BBX 4 4 0 0
BITMAP
E0
50
90
E0
ENDCHAR
STARTCHAR Adieresismacron
ENCODING 478
SWIDTH 750 0
DWIDTH 6 0
BBX 5 8 0 0
BITMAP
70
50
00
70
88
F8
88
88
ENDCHAR
STARTCHAR adieresismacron
ENCODING 479
SWIDTH 625 0
DWIDTH 5 0
BBX 4 7 0 0
BITMAP
F0
90
00
60
90
90
70
ENDCHAR
STARTCHAR Adotmacron
ENCODING 480
SWIDTH 750 0
DWIDTH 6 0
BBX 5 9 0 0
BITMAP
70
00
20
00
70
88
F8
88
88
ENDCHAR
STARTCHAR adotmacron
ENCODING 481
SWIDTH 625 0
DWIDTH 5 0
BBX 4 8 0 0
BITMAP
F0
00
20
00
60
90
90
70
ENDCHAR
STARTCHAR AEmacron
ENCODING 482
SWIDTH 1250 0
DWIDTH 10 0
BBX 9 7 0 0
BITMAP
0E00
0000
7F80
8800
FF00
8800
8F80
ENDCHAR
STARTCHAR aemacron
ENCODING 483
SWIDTH 1000 0
DWIDTH 8 0
BBX 7 6 0 0
BITMAP
3C
00
6E
92
94
7E
ENDCHAR
STARTCHAR Gbar
ENCODING 484
SWIDTH 750 0
DWIDTH 6 0
BBX 5 5 0 0
BITMAP
60
88
B8
88
78
ENDCHAR
STARTCHAR gbar
ENCODING 485
SWIDTH 625 0
DWIDTH 5 0
BBX 4 6 0 -2
BITMAP
60
90
90
70
10
70
ENDCHAR
STARTCHAR Ghacek
ENCODING 486
SWIDTH 750 0
DWIDTH 6 0
BBX 5 8 0 0
BITMAP
50
20
00
78
80
B8
88
78
ENDCHAR
STARTCHAR ghacek
ENCODING 487
SWIDTH 625 0
DWIDTH 5 0
BBX 4 9 0 -2
BITMAP
90
60
00
60
90
90
70
10
60
ENDCHAR
STARTCHAR Khacek
ENCODING 488
SWIDTH 750 0
DWIDTH 6 0
BBX 5 8 0 0
BITMAP
50
20
00
88
90
E0
90
88
ENDCHAR
STARTCHAR khacek
ENCODING 489
SWIDTH 625 0
DWIDTH 5 0
BBX 4 7 0 0
BITMAP
90
60
80
90
A0
D0
90
ENDCHAR
STARTCHAR Oogonek
ENCODING 490
SWIDTH 750 0
DWIDTH 6 0
BBX 5 7 0 -2
BITMAP
70
88
88
88
70
20
10
ENDCHAR
STARTCHAR oogonek
ENCODING 491
SWIDTH 625 0
DWIDTH 5 0
BBX 4 6 0 -2
BITMAP
60
90
90
60
40
20
ENDCHAR
STARTCHAR Oogonekmacron
ENCODING 492
SWIDTH 750 0
DWIDTH 6 0
BBX 5 9 0 -2
BITMAP
70
00
70
88
88
88
70
20
10
ENDCHAR
STARTCHAR oogonekmacron
ENCODING 493
SWIDTH 625 0
DWIDTH 5 0
BBX 4 8 0 -2
BITMAP
F0
00
60
90
90
60
40
20
ENDCHAR
STARTCHAR Yoghhacek
ENCODING 494
SWIDTH 625 0
DWIDTH 5 0
BBX 4 8 0 0
BITMAP
50
20
00
F0
20
60
10
E0
ENDCHAR
STARTCHAR yoghhacek
ENCODING 495
SWIDTH 625 0
DWIDTH 5 0
BBX 4 8 0 -1
BITMAP
90
60
00
F0
20
60
10
E0
ENDCHAR
STARTCHAR jhacek
ENCODING 496
SWIDTH 250 0
DWIDTH 2 0
BBX 3 8 -1 -2
BITMAP
A0
40
00
40
40
40
40
80
ENDCHAR
STARTCHAR uni01F1
ENCODING 497
SWIDTH 1500 0
DWIDTH 12 0
BBX 11 5 0 0
BITMAP
F3E0
8840
8880
8900
F3E0
ENDCHAR
STARTCHAR uni01F2
ENCODING 498
SWIDTH 1375 0
DWIDTH 11 0
BBX 10 5 0 0
BITMAP
F000
8BC0
8880
8900
F3C0
ENDCHAR
STARTCHAR uni01F3
ENCODING 499
SWIDTH 1250 0
DWIDTH 10 0
BBX 9 5 0 0
BITMAP
1000
7780
9100
9200
7780
ENDCHAR
STARTCHAR uni01F4
ENCODING 500
SWIDTH 750 0
DWIDTH 6 0
BBX 5 8 0 0
BITMAP
10
20
00
78
80
B8
88
78
ENDCHAR
STARTCHAR uni01F5
ENCODING 501
SWIDTH 625 0
DWIDTH 5 0
BBX 4 9 0 -2
BITMAP
20
40
00
60
90
90
70
10
60
ENDCHAR
STARTCHAR uni01F6
ENCODING 502
SWIDTH 1125 0
DWIDTH 9 0
BBX 8 5 0 0
BITMAP
88
89
F9
89
86
ENDCHAR
STARTCHAR uni01F7
ENCODING 503
SWIDTH 625 0
DWIDTH 5 0
BBX 4 7 0 -2
BITMAP
E0
90
90
90
A0
C0
80
ENDCHAR
STARTCHAR uni01F8
ENCODING 504
SWIDTH 750 0
DWIDTH 6 0
BBX 5 8 0 0
BITMAP
40
20
00
88
C8
A8
98
88
ENDCHAR
STARTCHAR uni01F9
ENCODING 505
SWIDTH 625 0
DWIDTH 5 0
BBX 4 7 0 0
BITMAP
40
20
00
E0
90
90
90
ENDCHAR
STARTCHAR Aringacute
ENCODING 506
SWIDTH 750 0
DWIDTH 6 0
BBX 5 9 0 0
BITMAP
10
20
50
20
70
88
F8
88
88
ENDCHAR
STARTCHAR aringacute
ENCODING 507
SWIDTH 625 0
DWIDTH 5 0
BBX 4 8 0 0
BITMAP
20
40
60
90
60
90
90
70
ENDCHAR
STARTCHAR AEacute
ENCODING 508
SWIDTH 1250 0
DWIDTH 10 0
BBX 9 8 0 0
BITMAP
0400
0800
0000
7F80
8800
FF00
8800
8F80
ENDCHAR
STARTCHAR aeacute
ENCODING 509
SWIDTH 1000 0
DWIDTH 8 0
BBX 7 7 0 0
BITMAP
08
10
00
6E
92
94
7E
ENDCHAR
STARTCHAR Oslashacute
ENCODING 510
SWIDTH 750 0
DWIDTH 6 0
BBX 5 8 0 0
BITMAP
10
20
00
70
98
A8
C8
70
ENDCHAR
STARTCHAR oslashacute
ENCODING 511
SWIDTH 625 0
DWIDTH 5 0
BBX 4 7 0 0
BITMAP
20
40
00
60
B0
D0
60
ENDCHAR
STARTCHAR circumflex
ENCODING 710
SWIDTH 500 0
DWIDTH 4 0
BBX 3 2 0 3
BITMAP
40
A0
ENDCHAR
STARTCHAR caron
ENCODING 711
SWIDTH 500 0
DWIDTH 4 0
BBX 3 2 0 3
BITMAP
A0
40
ENDCHAR
STARTCHAR macron.dup1
ENCODING 713
SWIDTH 500 0
DWIDTH 4 0
BBX 3 1 0 4
BITMAP
E0
ENDCHAR
STARTCHAR breve
ENCODING 728
SWIDTH 500 0
DWIDTH 4 0
BBX 3 2 0 3
BITMAP
A0
40
ENDCHAR
STARTCHAR dotaccent
ENCODING 729
SWIDTH 250 0
DWIDTH 2 0
BBX 1 1 0 2
BITMAP
80
ENDCHAR
STARTCHAR ring
ENCODING 730
SWIDTH 500 0
DWIDTH 4 0
BBX 3 3 0 1
BITMAP
40
A0
40
ENDCHAR
STARTCHAR ogonek
ENCODING 731
SWIDTH 375 0
DWIDTH 3 0
BBX 2 3 0 -2
BITMAP
40
80
40
ENDCHAR
STARTCHAR tilde
ENCODING 732
SWIDTH 625 0
DWIDTH 5 0
BBX 4 2 0 2
BITMAP
50
A0
ENDCHAR
STARTCHAR hungarumlaut
ENCODING 733
SWIDTH 500 0
DWIDTH 4 0
BBX 3 2 0 3
BITMAP
A0
A0
ENDCHAR
STARTCHAR iotasub
ENCODING 890
SWIDTH 375 0
DWIDTH 3 0
BBX 2 2 0 -2
BITMAP
80
40
ENDCHAR
STARTCHAR tonos
ENCODING 900
SWIDTH 375 0
DWIDTH 3 0
BBX 2 2 0 3
BITMAP
40
80
ENDCHAR
STARTCHAR diaeresistonos
ENCODING 901
SWIDTH 500 0
DWIDTH 4 0
BBX 3 3 0 3
BITMAP
20
40
A0
ENDCHAR
STARTCHAR Alphatonos
ENCODING 902
SWIDTH 1000 0
DWIDTH 8 0
BBX 7 5 0 0
BITMAP
5C
A2
3E
22
22
ENDCHAR
STARTCHAR anoteleia
ENCODING 903
SWIDTH 250 0
DWIDTH 2 0
BBX 1 1 0 2
BITMAP
80
ENDCHAR
STARTCHAR Epsilontonos
ENCODING 904
SWIDTH 1000 0
DWIDTH 8 0
BBX 7 5 0 0
BITMAP
7E
A0
3C
20
3E
ENDCHAR
STARTCHAR Etatonos
ENCODING 905
SWIDTH 1000 0
DWIDTH 8 0
BBX 7 5 0 0
BITMAP
62
A2
3E
22
22
ENDCHAR
STARTCHAR Iotatonos
ENCODING 906
SWIDTH 500 0
DWIDTH 4 0
BBX 3 5 0 0
BITMAP
60
A0
20
20
20
ENDCHAR
STARTCHAR Omicrontonos
ENCODING 908
SWIDTH 1000 0
DWIDTH 8 0
BBX 7 5 0 0
BITMAP
5C
A2
22
22
1C
ENDCHAR
STARTCHAR Upsilontonos
ENCODING 910
SWIDTH 1000 0
DWIDTH 8 0
BBX 7 5 0 0
BITMAP
62
94
08
08
08
ENDCHAR
STARTCHAR Omegatonos
ENCODING 911
SWIDTH 1000 0
DWIDTH 8 0
BBX 7 5 0 0
BITMAP
5C
A2
22
14
36
ENDCHAR
STARTCHAR iotadiaeresistonos
ENCODING 912
SWIDTH 500 0
DWIDTH 4 0
BBX 3 6 0 0
BITMAP
20
40
A0
40
40
20
ENDCHAR
STARTCHAR Alpha
ENCODING 913
SWIDTH 625 0
DWIDTH 5 0
BBX 5 5 0 0
BITMAP
70
88
F8
88
88
ENDCHAR
STARTCHAR Beta
ENCODING 914
SWIDTH 750 0
DWIDTH 6 0
BBX 5 5 0 0
BITMAP
F0
88
F0
88
F0
ENDCHAR
STARTCHAR Gamma
ENCODING 915
SWIDTH 625 0
DWIDTH 5 0
BBX 4 5 0 0
BITMAP
F0
80
80
80
80
ENDCHAR
STARTCHAR Delta
ENCODING 916
SWIDTH 750 0
DWIDTH 6 0
BBX 5 5 0 0
BITMAP
20
50
50
88
F8
ENDCHAR
STARTCHAR Epsilon
ENCODING 917
SWIDTH 750 0
DWIDTH 6 0
BBX 5 5 0 0
BITMAP
F8
80
F0
80
F8
ENDCHAR
STARTCHAR Zeta
ENCODING 918
SWIDTH 750 0
DWIDTH 6 0
BBX 5 5 0 0
BITMAP
F8
10
20
40
F8
ENDCHAR
STARTCHAR Eta
ENCODING 919
SWIDTH 750 0
DWIDTH 6 0
BBX 5 5 0 0
BITMAP
88
88
F8
88
88
ENDCHAR
STARTCHAR Theta
ENCODING 920
SWIDTH 750 0
DWIDTH 6 0
BBX 5 5 0 0
BITMAP
70
88
F8
88
70
ENDCHAR
STARTCHAR Iota
ENCODING 921
SWIDTH 250 0
DWIDTH 2 0
BBX 1 5 0 0
BITMAP
80
80
80
80
80
ENDCHAR
STARTCHAR Kappa
ENCODING 922
SWIDTH 750 0
DWIDTH 6 0
BBX 5 5 0 0
BITMAP
88
90
E0
90
88
ENDCHAR
STARTCHAR Lambda
ENCODING 923
SWIDTH 750 0
DWIDTH 6 0
BBX 5 5 0 0
BITMAP
20
50
50
88
88
ENDCHAR
STARTCHAR Mu
ENCODING 924
SWIDTH 750 0
DWIDTH 6 0
BBX 5 5 0 0
BITMAP
88
D8
A8
88
88
ENDCHAR
STARTCHAR Nu
ENCODING 925
SWIDTH 750 0
DWIDTH 6 0
BBX 5 5 0 0
BITMAP
88
C8
A8
98
88
ENDCHAR
STARTCHAR Xi
ENCODING 926
SWIDTH 625 0
DWIDTH 5 0
BBX 4 5 0 0
BITMAP
F0
00
60
00
F0
ENDCHAR
STARTCHAR Omicron
ENCODING 927
SWIDTH 750 0
DWIDTH 6 0
BBX 5 5 0 0
BITMAP
70
88
88
88
70
ENDCHAR
STARTCHAR Pi
ENCODING 928
SWIDTH 750 0
DWIDTH 6 0
BBX 5 5 0 0
BITMAP
F8
88
88
88
88
ENDCHAR
STARTCHAR Rho
ENCODING 929
SWIDTH 750 0
DWIDTH 6 0
BBX 5 5 0 0
BITMAP
F0
88
F0
80
80
ENDCHAR
STARTCHAR Sigma
ENCODING 931
SWIDTH 750 0
DWIDTH 6 0
BBX 5 5 0 0
BITMAP
F8
48
20
48
F8
ENDCHAR
STARTCHAR Tau
ENCODING 932
SWIDTH 750 0
DWIDTH 6 0
BBX 5 5 0 0
BITMAP
F8
20
20
20
20
ENDCHAR
STARTCHAR Upsilon
ENCODING 933
SWIDTH 750 0
DWIDTH 6 0
BBX 5 5 0 0
BITMAP
88
50
20
20
20
ENDCHAR
STARTCHAR Phi
ENCODING 934
SWIDTH 1000 0
DWIDTH 8 0
BBX 7 7 0 -1
BITMAP
10
38
54
92
54
38
10
ENDCHAR
STARTCHAR Chi
ENCODING 935
SWIDTH 750 0
DWIDTH 6 0
BBX 5 5 0 0
BITMAP
88
50
20
50
88
ENDCHAR
STARTCHAR Psi
ENCODING 936
SWIDTH 750 0
DWIDTH 6 0
BBX 5 5 0 0
BITMAP
A8
A8
70
20
20
ENDCHAR
STARTCHAR Omega
ENCODING 937
SWIDTH 750 0
DWIDTH 6 0
BBX 5 5 0 0
BITMAP
70
88
88
50
D8
ENDCHAR
STARTCHAR Iotadiaeresis
ENCODING 938
SWIDTH 250 0
DWIDTH 2 0
BBX 3 7 -1 0
BITMAP
A0
00
40
40
40
40
40
ENDCHAR
STARTCHAR Upsilondiaeresis
ENCODING 939
SWIDTH 750 0
DWIDTH 6 0
BBX 5 7 0 0
BITMAP
50
00
88
50
20
20
20
ENDCHAR
STARTCHAR alphatonos
ENCODING 940
SWIDTH 625 0
DWIDTH 5 0
BBX 4 7 0 0
BITMAP
40
40
00
60
90
90
70
ENDCHAR
STARTCHAR epsilontonos
ENCODING 941
SWIDTH 625 0
DWIDTH 5 0
BBX 4 8 0 -1
BITMAP
40
40
00
60
90
40
90
60
ENDCHAR
STARTCHAR etatonos
ENCODING 942
SWIDTH 625 0
DWIDTH 5 0
BBX 4 8 0 -1
BITMAP
40
40
00
E0
90
90
90
10
ENDCHAR
STARTCHAR iotatonos
ENCODING 943
SWIDTH 375 0
DWIDTH 3 0
BBX 2 7 0 0
BITMAP
80
80
00
80
80
80
40
ENDCHAR
STARTCHAR upsilondiaeresistonos
ENCODING 944
SWIDTH 625 0
DWIDTH 5 0
BBX 4 8 0 0
BITMAP
20
40
A0
00
90
90
90
70
ENDCHAR
STARTCHAR alpha
ENCODING 945
SWIDTH 625 0
DWIDTH 5 0
BBX 4 4 0 0
BITMAP
60
90
90
70
ENDCHAR
STARTCHAR beta
ENCODING 946
SWIDTH 625 0
DWIDTH 5 0
BBX 4 5 0 0
BITMAP
60
90
A0
90
A0
ENDCHAR
STARTCHAR gamma
ENCODING 947
SWIDTH 625 0
DWIDTH 5 0
BBX 4 6 0 -2
BITMAP
90
90
90
70
10
60
ENDCHAR
STARTCHAR delta
ENCODING 948
SWIDTH 625 0
DWIDTH 5 0
BBX 4 5 0 0
BITMAP
F0
40
60
90
60
ENDCHAR
STARTCHAR epsilon
ENCODING 949
SWIDTH 625 0
DWIDTH 5 0
BBX 4 5 0 -1
BITMAP
60
90
40
90
60
ENDCHAR
STARTCHAR zeta
ENCODING 950
SWIDTH 500 0
DWIDTH 4 0
BBX 3 7 0 -2
BITMAP
E0
40
80
80
80
40
80
ENDCHAR
STARTCHAR eta
ENCODING 951
SWIDTH 625 0
DWIDTH 5 0
BBX 4 5 0 -1
BITMAP
E0
90
90
90
10
ENDCHAR
STARTCHAR theta
ENCODING 952
SWIDTH 625 0
DWIDTH 5 0
BBX 4 5 0 0
BITMAP
60
90
F0
90
60
ENDCHAR
STARTCHAR iota
ENCODING 953
SWIDTH 375 0
DWIDTH 3 0
BBX 2 4 0 0
BITMAP
80
80
80
40
ENDCHAR
STARTCHAR kappa
ENCODING 954
SWIDTH 625 0
DWIDTH 5 0
BBX 4 4 0 0
BITMAP
90
A0
D0
90
ENDCHAR
STARTCHAR lambda
ENCODING 955
SWIDTH 625 0
DWIDTH 5 0
BBX 4 5 0 0
BITMAP
60
10
70
90
90
ENDCHAR
STARTCHAR mu
ENCODING 956
SWIDTH 750 0
DWIDTH 6 0
BBX 5 6 0 -2
BITMAP
90
90
90
E8
80
80
ENDCHAR
STARTCHAR nu
ENCODING 957
SWIDTH 750 0
DWIDTH 6 0
BBX 5 4 0 0
BITMAP
88
50
50
20
ENDCHAR
STARTCHAR xi
ENCODING 958
SWIDTH 500 0
DWIDTH 4 0
BBX 3 8 0 -2
BITMAP
40
80
60
40
80
80
40
80
ENDCHAR
STARTCHAR omicron
ENCODING 959
SWIDTH 625 0
DWIDTH 5 0
BBX 4 4 0 0
BITMAP
60
90
90
60
ENDCHAR
STARTCHAR pi
ENCODING 960
SWIDTH 750 0
DWIDTH 6 0
BBX 5 4 0 0
BITMAP
F8
50
50
50
ENDCHAR
STARTCHAR rho
ENCODING 961
SWIDTH 625 0
DWIDTH 5 0
BBX 4 6 0 -2
BITMAP
E0
90
90
E0
80
80
ENDCHAR
STARTCHAR sigmafinal
ENCODING 962
SWIDTH 625 0
DWIDTH 5 0
BBX 4 4 0 0
BITMAP
70
C0
30
60
ENDCHAR
STARTCHAR sigma
ENCODING 963
SWIDTH 750 0
DWIDTH 6 0
BBX 5 4 0 0
BITMAP
78
90
90
60
ENDCHAR
STARTCHAR tau
ENCODING 964
SWIDTH 500 0
DWIDTH 4 0
BBX 3 4 0 0
BITMAP
E0
40
40
20
ENDCHAR
STARTCHAR upsilon
ENCODING 965
SWIDTH 625 0
DWIDTH 5 0
BBX 4 4 0 0
BITMAP
A0
90
90
E0
ENDCHAR
STARTCHAR phi
ENCODING 966
SWIDTH 750 0
DWIDTH 6 0
BBX 5 6 0 -2
BITMAP
70
A8
A8
70
20
20
ENDCHAR
STARTCHAR chi
ENCODING 967
SWIDTH 750 0
DWIDTH 6 0
BBX 5 5 0 -1
BITMAP
88
50
20
50
88
ENDCHAR
STARTCHAR psi
ENCODING 968
SWIDTH 750 0
DWIDTH 6 0
BBX 5 5 0 -1
BITMAP
A8
A8
A8
70
20
ENDCHAR
STARTCHAR omega
ENCODING 969
SWIDTH 750 0
DWIDTH 6 0
BBX 5 4 0 0
BITMAP
88
A8
A8
50
ENDCHAR
STARTCHAR iotadiaeresis
ENCODING 970
SWIDTH 375 0
DWIDTH 3 0
BBX 3 6 -1 0
BITMAP
A0
00
40
40
40
20
ENDCHAR
STARTCHAR upsilondiaeresis
ENCODING 971
SWIDTH 625 0
DWIDTH 5 0
BBX 4 6 0 0
BITMAP
A0
00
A0
90
90
E0
ENDCHAR
STARTCHAR omicrontonos
ENCODING 972
SWIDTH 625 0
DWIDTH 5 0
BBX 4 7 0 0
BITMAP
40
40
00
60
90
90
60
ENDCHAR
STARTCHAR upsilontonos
ENCODING 973
SWIDTH 625 0
DWIDTH 5 0
BBX 4 7 0 0
BITMAP
40
40
00
A0
90
90
E0
ENDCHAR
STARTCHAR omegatonos
ENCODING 974
SWIDTH 750 0
DWIDTH 6 0
BBX 5 7 0 0
BITMAP
20
20
00
88
A8
A8
50
ENDCHAR
STARTCHAR uni0400
ENCODING 1024
SWIDTH 750 0
DWIDTH 6 0
BBX 5 8 0 0
BITMAP
40
20
00
F8
80
F0
80
F8
ENDCHAR
STARTCHAR Io
ENCODING 1025
SWIDTH 750 0
DWIDTH 6 0
BBX 5 7 0 0
BITMAP
50
00
F8
80
F0
80
F8
ENDCHAR
STARTCHAR Dje
ENCODING 1026
SWIDTH 1000 0
DWIDTH 8 0
BBX 7 6 0 -1
BITMAP
F8
20
3C
22
22
04
ENDCHAR
STARTCHAR Gje
ENCODING 1027
SWIDTH 625 0
DWIDTH 5 0
BBX 4 8 0 0
BITMAP
20
40
00
F0
80
80
80
80
ENDCHAR
STARTCHAR Ecyril
ENCODING 1028
SWIDTH 750 0
DWIDTH 6 0
BBX 5 5 0 0
BITMAP
70
88
E0
88
70
ENDCHAR
STARTCHAR Dze
ENCODING 1029
SWIDTH 750 0
DWIDTH 6 0
BBX 5 5 0 0
BITMAP
78
80
70
08
F0
ENDCHAR
STARTCHAR Icyril
ENCODING 1030
SWIDTH 250 0
DWIDTH 2 0
BBX 1 5 0 0
BITMAP
80
80
80
80
80
ENDCHAR
STARTCHAR Yi
ENCODING 1031
SWIDTH 250 0
DWIDTH 2 0
BBX 3 7 -1 0
BITMAP
A0
00
40
40
40
40
40
ENDCHAR
STARTCHAR Je
ENCODING 1032
SWIDTH 625 0
DWIDTH 5 0
BBX 4 5 0 0
BITMAP
10
10
10
90
60
ENDCHAR
STARTCHAR Lje
ENCODING 1033
SWIDTH 1125 0
DWIDTH 9 0
BBX 8 5 0 0
BITMAP
70
50
5E
51
9E
ENDCHAR
STARTCHAR Nje
ENCODING 1034
SWIDTH 1250 0
DWIDTH 10 0
BBX 9 5 0 0
BITMAP
8800
8800
FF00
8880
8F00
ENDCHAR
STARTCHAR Tshe
ENCODING 1035
SWIDTH 875 0
DWIDTH 7 0
BBX 6 5 0 0
BITMAP
F8
20
38
24
24
ENDCHAR
STARTCHAR Kje
ENCODING 1036
SWIDTH 750 0
DWIDTH 6 0
BBX 5 7 0 0
BITMAP
10
20
88
90
E0
90
88
ENDCHAR
STARTCHAR uni040D
ENCODING 1037
SWIDTH 750 0
DWIDTH 6 0
BBX 5 7 0 0
BITMAP
50
20
88
98
A8
C8
88
ENDCHAR
STARTCHAR Ucyrilbreve
ENCODING 1038
SWIDTH 750 0
DWIDTH 6 0
BBX 5 7 0 0
BITMAP
50
20
88
88
50
20
C0
ENDCHAR
STARTCHAR Dzhe
ENCODING 1039
SWIDTH 750 0
DWIDTH 6 0
BBX 5 6 0 -1
BITMAP
88
88
88
88
F8
20
ENDCHAR
STARTCHAR Acyril
ENCODING 1040
SWIDTH 625 0
DWIDTH 5 0
BBX 5 5 0 0
BITMAP
70
88
F8
88
88
ENDCHAR
STARTCHAR Be
ENCODING 1041
SWIDTH 750 0
DWIDTH 6 0
BBX 5 5 0 0
BITMAP
F0
80
F0
88
F0
ENDCHAR
STARTCHAR Ve
ENCODING 1042
SWIDTH 750 0
DWIDTH 6 0
BBX 5 5 0 0
BITMAP
F0
88
F0
88
F0
ENDCHAR
STARTCHAR Ge
ENCODING 1043
SWIDTH 625 0
DWIDTH 5 0
BBX 4 5 0 0
BITMAP
F0
80
80
80
80
ENDCHAR
STARTCHAR De
ENCODING 1044
SWIDTH 625 0
DWIDTH 5 0
BBX 6 6 -1 -1
BITMAP
78
48
48
48
78
84
ENDCHAR
STARTCHAR Ie
ENCODING 1045
SWIDTH 750 0
DWIDTH 6 0
BBX 5 5 0 0
BITMAP
F8
80
F0
80
F8
ENDCHAR
STARTCHAR Zhe
ENCODING 1046
SWIDTH 1000 0
DWIDTH 8 0
BBX 7 5 0 0
BITMAP
92
54
38
54
92
ENDCHAR
STARTCHAR Ze
ENCODING 1047
SWIDTH 750 0
DWIDTH 6 0
BBX 5 5 0 0
BITMAP
70
88
30
88
70
ENDCHAR
STARTCHAR Ii
ENCODING 1048
SWIDTH 750 0
DWIDTH 6 0
BBX 5 5 0 0
BITMAP
88
98
A8
C8
88
ENDCHAR
STARTCHAR Iibreve
ENCODING 1049
SWIDTH 750 0
DWIDTH 6 0
BBX 5 7 0 0
BITMAP
50
20
88
98
A8
C8
88
ENDCHAR
STARTCHAR Ka
ENCODING 1050
SWIDTH 750 0
DWIDTH 6 0
BBX 5 5 0 0
BITMAP
88
90
E0
90
88
ENDCHAR
STARTCHAR El
ENCODING 1051
SWIDTH 750 0
DWIDTH 6 0
BBX 5 5 0 0
BITMAP
78
48
48
48
88
ENDCHAR
STARTCHAR Em
ENCODING 1052
SWIDTH 750 0
DWIDTH 6 0
BBX 5 5 0 0
BITMAP
88
D8
A8
88
88
ENDCHAR
STARTCHAR En
ENCODING 1053
SWIDTH 750 0
DWIDTH 6 0
BBX 5 5 0 0
BITMAP
88
88
F8
88
88
ENDCHAR
STARTCHAR Ocyril
ENCODING 1054
SWIDTH 750 0
DWIDTH 6 0
BBX 5 5 0 0
BITMAP
70
88
88
88
70
ENDCHAR
STARTCHAR Pecyril
ENCODING 1055
SWIDTH 750 0
DWIDTH 6 0
BBX 5 5 0 0
BITMAP
F8
88
88
88
88
ENDCHAR
STARTCHAR Er
ENCODING 1056
SWIDTH 750 0
DWIDTH 6 0
BBX 5 5 0 0
BITMAP
F0
88
F0
80
80
ENDCHAR
STARTCHAR Es
ENCODING 1057
SWIDTH 750 0
DWIDTH 6 0
BBX 5 5 0 0
BITMAP
78
80
80
80
78
ENDCHAR
STARTCHAR Te
ENCODING 1058
SWIDTH 750 0
DWIDTH 6 0
BBX 5 5 0 0
BITMAP
F8
20
20
20
20
ENDCHAR
STARTCHAR Ucyril
ENCODING 1059
SWIDTH 750 0
DWIDTH 6 0
BBX 5 5 0 0
BITMAP
88
88
50
20
C0
ENDCHAR
STARTCHAR Ef
ENCODING 1060
SWIDTH 1000 0
DWIDTH 8 0
BBX 7 7 0 -1
BITMAP
10
38
54
92
54
38
10
ENDCHAR
STARTCHAR Kha
ENCODING 1061
SWIDTH 750 0
DWIDTH 6 0
BBX 5 5 0 0
BITMAP
88
50
20
50
88
ENDCHAR
STARTCHAR Tse
ENCODING 1062
SWIDTH 750 0
DWIDTH 6 0
BBX 6 6 0 -1
BITMAP
88
88
88
88
F8
04
ENDCHAR
STARTCHAR Che
ENCODING 1063
SWIDTH 750 0
DWIDTH 6 0
BBX 5 5 0 0
BITMAP
88
88
78
08
08
ENDCHAR
STARTCHAR Sha
ENCODING 1064
SWIDTH 1000 0
DWIDTH 8 0
BBX 7 5 0 0
BITMAP
92
92
92
92
FE
ENDCHAR
STARTCHAR Shcha
ENCODING 1065
SWIDTH 1000 0
DWIDTH 8 0
BBX 8 6 0 -1
BITMAP
92
92
92
92
FE
01
ENDCHAR
STARTCHAR Hard
ENCODING 1066
SWIDTH 1000 0
DWIDTH 8 0
BBX 7 5 0 0
BITMAP
E0
20
3C
22
3C
ENDCHAR
STARTCHAR Yeri
ENCODING 1067
SWIDTH 1000 0
DWIDTH 8 0
BBX 7 5 0 0
BITMAP
82
82
F2
8A
F2
ENDCHAR
STARTCHAR Soft
ENCODING 1068
SWIDTH 750 0
DWIDTH 6 0
BBX 5 5 0 0
BITMAP
80
80
F0
88
F0
ENDCHAR
STARTCHAR Ecyrilrev
ENCODING 1069
SWIDTH 750 0
DWIDTH 6 0
BBX 5 5 0 0
BITMAP
70
88
38
88
70
ENDCHAR
STARTCHAR Iu
ENCODING 1070
SWIDTH 1000 0
DWIDTH 8 0
BBX 7 5 0 0
BITMAP
9C
A2
E2
A2
9C
ENDCHAR
STARTCHAR Ia
ENCODING 1071
SWIDTH 750 0
DWIDTH 6 0
BBX 5 5 0 0
BITMAP
78
88
78
48
88
ENDCHAR
STARTCHAR acyril
ENCODING 1072
SWIDTH 625 0
DWIDTH 5 0
BBX 4 4 0 0
BITMAP
E0
70
90
60
ENDCHAR
STARTCHAR be
ENCODING 1073
SWIDTH 625 0
DWIDTH 5 0
BBX 4 5 0 0
BITMAP
60
80
E0
90
60
ENDCHAR
STARTCHAR ve
ENCODING 1074
SWIDTH 625 0
DWIDTH 5 0
BBX 4 5 0 0
BITMAP
E0
90
E0
90
E0
ENDCHAR
STARTCHAR ge
ENCODING 1075
SWIDTH 625 0
DWIDTH 5 0
BBX 4 4 0 0
BITMAP
F0
80
80
80
ENDCHAR
STARTCHAR de
ENCODING 1076
SWIDTH 625 0
DWIDTH 5 0
BBX 6 5 -1 -1
BITMAP
78
48
48
78
84
ENDCHAR
STARTCHAR ie
ENCODING 1077
SWIDTH 625 0
DWIDTH 5 0
BBX 4 4 0 0
BITMAP
70
90
A0
70
ENDCHAR
STARTCHAR zhe
ENCODING 1078
SWIDTH 750 0
DWIDTH 6 0
BBX 5 4 0 0
BITMAP
A8
70
70
A8
ENDCHAR
STARTCHAR ze
ENCODING 1079
SWIDTH 625 0
DWIDTH 5 0
BBX 4 5 0 0
BITMAP
60
90
20
90
60
ENDCHAR
STARTCHAR ii
ENCODING 1080
SWIDTH 625 0
DWIDTH 5 0
BBX 4 4 0 0
BITMAP
90
B0
D0
90
ENDCHAR
STARTCHAR iibreve
ENCODING 1081
SWIDTH 625 0
DWIDTH 5 0
BBX 4 7 0 0
BITMAP
90
60
00
90
B0
D0
90
ENDCHAR
STARTCHAR ka
ENCODING 1082
SWIDTH 625 0
DWIDTH 5 0
BBX 4 4 0 0
BITMAP
90
A0
D0
90
ENDCHAR
STARTCHAR el
ENCODING 1083
SWIDTH 625 0
DWIDTH 5 0
BBX 4 4 0 0
BITMAP
70
50
50
90
ENDCHAR
STARTCHAR em
ENCODING 1084
SWIDTH 750 0
DWIDTH 6 0
BBX 5 4 0 0
BITMAP
88
D8
A8
88
ENDCHAR
STARTCHAR en
ENCODING 1085
SWIDTH 625 0
DWIDTH 5 0
BBX 4 4 0 0
BITMAP
90
F0
90
90
ENDCHAR
STARTCHAR ocyril
ENCODING 1086
SWIDTH 625 0
DWIDTH 5 0
BBX 4 4 0 0
BITMAP
60
90
90
60
ENDCHAR
STARTCHAR pecyril
ENCODING 1087
SWIDTH 625 0
DWIDTH 5 0
BBX 4 4 0 0
BITMAP
F0
90
90
90
ENDCHAR
STARTCHAR er
ENCODING 1088
SWIDTH 625 0
DWIDTH 5 0
BBX 4 5 0 -1
BITMAP
E0
90
90
E0
80
ENDCHAR
STARTCHAR es
ENCODING 1089
SWIDTH 625 0
DWIDTH 5 0
BBX 4 4 0 0
BITMAP
70
80
80
70
ENDCHAR
STARTCHAR te
ENCODING 1090
SWIDTH 750 0
DWIDTH 6 0
BBX 5 4 0 0
BITMAP
F8
20
20
20
ENDCHAR
STARTCHAR ucyril
ENCODING 1091
SWIDTH 625 0
DWIDTH 5 0
BBX 4 5 0 -1
BITMAP
90
90
70
20
C0
ENDCHAR
STARTCHAR ef
ENCODING 1092
SWIDTH 750 0
DWIDTH 6 0
BBX 5 5 0 0
BITMAP
20
70
A8
70
20
ENDCHAR
STARTCHAR kha
ENCODING 1093
SWIDTH 625 0
DWIDTH 5 0
BBX 4 4 0 0
BITMAP
90
60
60
90
ENDCHAR
STARTCHAR tse
ENCODING 1094
SWIDTH 625 0
DWIDTH 5 0
BBX 5 5 0 -1
BITMAP
90
90
90
F0
08
ENDCHAR
STARTCHAR che
ENCODING 1095
SWIDTH 625 0
DWIDTH 5 0
BBX 4 4 0 0
BITMAP
90
90
70
10
ENDCHAR
STARTCHAR sha
ENCODING 1096
SWIDTH 750 0
DWIDTH 6 0
BBX 5 4 0 0
BITMAP
A8
A8
A8
F8
ENDCHAR
STARTCHAR shcha
ENCODING 1097
SWIDTH 750 0
DWIDTH 6 0
BBX 6 5 0 -1
BITMAP
A8
A8
A8
F8
04
ENDCHAR
STARTCHAR hard
ENCODING 1098
SWIDTH 750 0
DWIDTH 6 0
BBX 5 4 0 0
BITMAP
C0
70
48
70
ENDCHAR
STARTCHAR yeri
ENCODING 1099
SWIDTH 875 0
DWIDTH 7 0
BBX 6 4 0 0
BITMAP
84
E4
94
E4
ENDCHAR
STARTCHAR soft
ENCODING 1100
SWIDTH 625 0
DWIDTH 5 0
BBX 4 4 0 0
BITMAP
80
E0
90
E0
ENDCHAR
STARTCHAR ecyrilrev
ENCODING 1101
SWIDTH 625 0
DWIDTH 5 0
BBX 4 5 0 0
BITMAP
60
90
30
90
60
ENDCHAR
STARTCHAR iu
ENCODING 1102
SWIDTH 750 0
DWIDTH 6 0
BBX 5 4 0 0
BITMAP
B0
C8
C8
B0
ENDCHAR
STARTCHAR ia
ENCODING 1103
SWIDTH 625 0
DWIDTH 5 0
BBX 4 4 0 0
BITMAP
70
90
70
90
ENDCHAR
STARTCHAR uni0450
ENCODING 1104
SWIDTH 750 0
DWIDTH 6 0
BBX 4 7 0 0
BITMAP
40
20
00
70
90
A0
70
ENDCHAR
STARTCHAR io
ENCODING 1105
SWIDTH 625 0
DWIDTH 5 0
BBX 4 6 0 0
BITMAP
90
00
70
90
A0
70
ENDCHAR
STARTCHAR dje
ENCODING 1106
SWIDTH 750 0
DWIDTH 6 0
BBX 5 6 0 -1
BITMAP
F0
40
70
48
48
10
ENDCHAR
STARTCHAR gje
ENCODING 1107
SWIDTH 625 0
DWIDTH 5 0
BBX 4 7 0 0
BITMAP
20
40
00
F0
80
80
80
ENDCHAR
STARTCHAR ecyril
ENCODING 1108
SWIDTH 625 0
DWIDTH 5 0
BBX 4 5 0 0
BITMAP
60
90
C0
90
60
ENDCHAR
STARTCHAR dze
ENCODING 1109
SWIDTH 625 0
DWIDTH 5 0
BBX 4 4 0 0
BITMAP
70
C0
30
E0
ENDCHAR
STARTCHAR icyril
ENCODING 1110
SWIDTH 250 0
DWIDTH 2 0
BBX 1 5 0 0
BITMAP
80
00
80
80
80
ENDCHAR
STARTCHAR yi
ENCODING 1111
SWIDTH 250 0
DWIDTH 2 0
BBX 3 5 -1 0
BITMAP
A0
00
40
40
40
ENDCHAR
STARTCHAR je
ENCODING 1112
SWIDTH 250 0
DWIDTH 2 0
BBX 2 6 -1 -1
BITMAP
40
00
40
40
40
80
ENDCHAR
STARTCHAR lje
ENCODING 1113
SWIDTH 1000 0
DWIDTH 8 0
BBX 7 4 0 0
BITMAP
70
5C
52
9C
ENDCHAR
STARTCHAR nje
ENCODING 1114
SWIDTH 1000 0
DWIDTH 8 0
BBX 7 4 0 0
BITMAP
90
FC
92
9C
ENDCHAR
STARTCHAR tshe
ENCODING 1115
SWIDTH 750 0
DWIDTH 6 0
BBX 5 5 0 0
BITMAP
F0
40
70
48
48
ENDCHAR
STARTCHAR kje
ENCODING 1116
SWIDTH 625 0
DWIDTH 5 0
BBX 4 7 0 0
BITMAP
10
20
80
90
A0
D0
90
ENDCHAR
STARTCHAR uni045D
ENCODING 1117
SWIDTH 625 0
DWIDTH 5 0
BBX 4 7 0 0
BITMAP
90
60
00
90
B0
D0
90
ENDCHAR
STARTCHAR ucyrilbreve
ENCODING 1118
SWIDTH 625 0
DWIDTH 5 0
BBX 4 8 0 -1
BITMAP
90
60
00
90
90
70
20
C0
ENDCHAR
STARTCHAR dzhe
ENCODING 1119
SWIDTH 750 0
DWIDTH 6 0
BBX 5 5 0 -1
BITMAP
88
88
88
F8
20
ENDCHAR
STARTCHAR uni0460
ENCODING 1120
SWIDTH 1000 0
DWIDTH 8 0
BBX 7 5 0 0
BITMAP
44
AA
82
92
6C
ENDCHAR
STARTCHAR uni0461
ENCODING 1121
SWIDTH 1000 0
DWIDTH 8 0
BBX 7 4 0 0
BITMAP
92
92
92
6C
ENDCHAR
STARTCHAR Yat
ENCODING 1122
SWIDTH 1000 0
DWIDTH 8 0
BBX 7 5 0 0
BITMAP
F8
20
3C
22
3C
ENDCHAR
STARTCHAR yat
ENCODING 1123
SWIDTH 875 0
DWIDTH 7 0
BBX 6 5 0 0
BITMAP
F8
20
38
24
38
ENDCHAR
STARTCHAR uni0464
ENCODING 1124
SWIDTH 1000 0
DWIDTH 8 0
BBX 7 5 0 0
BITMAP
9C
A2
F8
A2
9C
ENDCHAR
STARTCHAR uni0465
ENCODING 1125
SWIDTH 1000 0
DWIDTH 8 0
BBX 6 5 0 0
BITMAP
98
A4
F0
A4
98
ENDCHAR
STARTCHAR uni0466
ENCODING 1126
SWIDTH 1250 0
DWIDTH 10 0
BBX 9 5 0 0
BITMAP
0800
1400
3600
4900
8880
ENDCHAR
STARTCHAR uni0467
ENCODING 1127
SWIDTH 1000 0
DWIDTH 8 0
BBX 7 4 0 0
BITMAP
10
28
54
92
ENDCHAR
STARTCHAR uni0468
ENCODING 1128
SWIDTH 1500 0
DWIDTH 12 0
BBX 11 5 0 0
BITMAP
8200
8500
FD80
9240
A220
ENDCHAR
STARTCHAR uni0469
ENCODING 1129
SWIDTH 1250 0
DWIDTH 10 0
BBX 9 4 0 0
BITMAP
8400
FA00
9500
A480
ENDCHAR
STARTCHAR Yusbig
ENCODING 1130
SWIDTH 1000 0
DWIDTH 8 0
BBX 7 5 0 0
BITMAP
7C
28
10
7C
92
ENDCHAR
STARTCHAR yusbig
ENCODING 1131
SWIDTH 750 0
DWIDTH 6 0
BBX 5 4 0 0
BITMAP
F8
50
70
A8
ENDCHAR
STARTCHAR uni046C
ENCODING 1132
SWIDTH 1250 0
DWIDTH 10 0
BBX 9 5 0 0
BITMAP
9F00
8A00
FC00
9F00
A480
ENDCHAR
STARTCHAR uni046D
ENCODING 1133
SWIDTH 1000 0
DWIDTH 8 0
BBX 7 4 0 0
BITMAP
BE
94
FC
AA
ENDCHAR
STARTCHAR uni046E
ENCODING 1134
SWIDTH 750 0
DWIDTH 6 0
BBX 5 10 0 -2
BITMAP
50
20
00
70
88
30
08
70
80
70
ENDCHAR
STARTCHAR uni046F
ENCODING 1135
SWIDTH 625 0
DWIDTH 5 0
BBX 4 10 0 -2
BITMAP
90
60
00
60
90
20
10
60
80
60
ENDCHAR
STARTCHAR Psicyril
ENCODING 1136
SWIDTH 750 0
DWIDTH 6 0
BBX 5 5 0 0
BITMAP
A8
A8
70
20
20
ENDCHAR
STARTCHAR psicyril
ENCODING 1137
SWIDTH 750 0
DWIDTH 6 0
BBX 5 5 0 -1
BITMAP
A8
A8
A8
70
20
ENDCHAR
STARTCHAR Fita
ENCODING 1138
SWIDTH 750 0
DWIDTH 6 0
BBX 5 5 0 0
BITMAP
70
88
F8
88
70
ENDCHAR
STARTCHAR fita
ENCODING 1139
SWIDTH 625 0
DWIDTH 5 0
BBX 4 4 0 0
BITMAP
60
B0
D0
60
ENDCHAR
STARTCHAR Izhitsa
ENCODING 1140
SWIDTH 750 0
DWIDTH 6 0
BBX 5 5 0 0
BITMAP
88
90
90
50
20
ENDCHAR
STARTCHAR izhitsa
ENCODING 1141
SWIDTH 750 0
DWIDTH 6 0
BBX 5 4 0 0
BITMAP
88
90
50
20
ENDCHAR
STARTCHAR Izhitsagravedbl
ENCODING 1142
SWIDTH 750 0
DWIDTH 6 0
BBX 5 7 0 0
BITMAP
40
20
88
90
90
50
20
ENDCHAR
STARTCHAR izhitsagravedbl
ENCODING 1143
SWIDTH 750 0
DWIDTH 6 0
BBX 5 6 0 0
BITMAP
40
20
88
90
50
20
ENDCHAR
STARTCHAR Digraphuk
ENCODING 1144
SWIDTH 1375 0
DWIDTH 11 0
BBX 10 6 0 -1
BITMAP
7000
8C40
8C80
8A80
7100
0200
ENDCHAR
STARTCHAR digraphuk
ENCODING 1145
SWIDTH 1250 0
DWIDTH 10 0
BBX 9 5 0 -1
BITMAP
6000
9880
9500
6200
0400
ENDCHAR
STARTCHAR Omegaround
ENCODING 1146
SWIDTH 1000 0
DWIDTH 8 0
BBX 7 7 0 -1
BITMAP
10
7C
82
82
82
7C
10
ENDCHAR
STARTCHAR omegaround
ENCODING 1147
SWIDTH 1000 0
DWIDTH 8 0
BBX 7 6 0 -1
BITMAP
10
7C
82
82
7C
10
ENDCHAR
STARTCHAR Omegatitlo
ENCODING 1148
SWIDTH 1000 0
DWIDTH 8 0
BBX 7 7 0 0
BITMAP
10
20
44
AA
82
92
6C
ENDCHAR
STARTCHAR omegatitlo
ENCODING 1149
SWIDTH 1000 0
DWIDTH 8 0
BBX 7 6 0 0
BITMAP
10
20
44
AA
82
7C
ENDCHAR
STARTCHAR OT
ENCODING 1150
SWIDTH 1000 0
DWIDTH 8 0
BBX 7 7 0 0
BITMAP
7C
00
44
AA
82
92
6C
ENDCHAR
STARTCHAR ot
ENCODING 1151
SWIDTH 1000 0
DWIDTH 8 0
BBX 7 6 0 0
BITMAP
7C
00
92
92
92
6C
ENDCHAR
STARTCHAR hyphen
ENCODING 8208
SWIDTH 500 0
DWIDTH 4 0
BBX 3 1 0 2
BITMAP
E0
ENDCHAR
STARTCHAR endash
ENCODING 8211
SWIDTH 500 0
DWIDTH 4 0
BBX 3 1 0 2
BITMAP
E0
ENDCHAR
STARTCHAR emdash
ENCODING 8212
SWIDTH 625 0
DWIDTH 5 0
BBX 4 1 0 2
BITMAP
F0
ENDCHAR
STARTCHAR quoteleft
ENCODING 8216
SWIDTH 250 0
DWIDTH 2 0
BBX 1 2 0 3
BITMAP
80
80
ENDCHAR
STARTCHAR quoteright
ENCODING 8217
SWIDTH 250 0
DWIDTH 2 0
BBX 1 2 0 3
BITMAP
80
80
ENDCHAR
STARTCHAR quotesinglbase
ENCODING 8218
SWIDTH 250 0
DWIDTH 2 0
BBX 2 3 -1 -2
BITMAP
40
40
80
ENDCHAR
STARTCHAR quotedblleft
ENCODING 8220
SWIDTH 500 0
DWIDTH 4 0
BBX 3 2 0 3
BITMAP
A0
A0
ENDCHAR
STARTCHAR quotedblright
ENCODING 8221
SWIDTH 500 0
DWIDTH 4 0
BBX 3 2 0 3
BITMAP
A0
A0
ENDCHAR
STARTCHAR quotedblbase
ENCODING 8222
SWIDTH 500 0
DWIDTH 4 0
BBX 4 3 -1 -2
BITMAP
50
50
A0
ENDCHAR
STARTCHAR dagger
ENCODING 8224
SWIDTH 500 0
DWIDTH 4 0
BBX 3 4 0 0
BITMAP
40
E0
40
40
ENDCHAR
STARTCHAR daggerdbl
ENCODING 8225
SWIDTH 500 0
DWIDTH 4 0
BBX 3 7 0 -1
BITMAP
40
40
E0
40
E0
40
40
ENDCHAR
STARTCHAR bullet
ENCODING 8226
SWIDTH 250 0
DWIDTH 2 0
BBX 1 1 0 2
BITMAP
80
ENDCHAR
STARTCHAR ellipsis
ENCODING 8230
SWIDTH 750 0
DWIDTH 6 0
BBX 5 1 0 0
BITMAP
A8
ENDCHAR
STARTCHAR perthousand
ENCODING 8240
SWIDTH 750 0
DWIDTH 6 0
BBX 5 5 0 0
BITMAP
88
10
20
40
A8
ENDCHAR
STARTCHAR guilsinglleft
ENCODING 8249
SWIDTH 375 0
DWIDTH 3 0
BBX 2 3 0 1
BITMAP
40
80
40
ENDCHAR
STARTCHAR guilsinglright
ENCODING 8250
SWIDTH 375 0
DWIDTH 3 0
BBX 2 3 0 1
BITMAP
80
40
80
ENDCHAR
STARTCHAR currency.dup2
ENCODING 8364
SWIDTH 875 0
DWIDTH 7 0
BBX 6 5 0 0
BITMAP
38
44
F0
44
38
ENDCHAR
STARTCHAR servicemark
ENCODING 8480
SWIDTH 1125 0
DWIDTH 9 0
BBX 8 3 0 2
BITMAP
6A
55
D5
ENDCHAR
STARTCHAR trademark
ENCODING 8482
SWIDTH 1125 0
DWIDTH 9 0
BBX 8 3 0 2
BITMAP
EA
55
55
ENDCHAR
STARTCHAR Omega.dup3
ENCODING 8486
SWIDTH 750 0
DWIDTH 6 0
BBX 5 5 0 0
BITMAP
70
88
88
50
D8
ENDCHAR
STARTCHAR arrowleft
ENCODING 8592
SWIDTH 750 0
DWIDTH 6 0
BBX 5 5 0 0
BITMAP
20
40
F8
40
20
ENDCHAR
STARTCHAR arrowup
ENCODING 8593
SWIDTH 750 0
DWIDTH 6 0
BBX 5 5 0 0
BITMAP
20
70
A8
20
20
ENDCHAR
STARTCHAR arrowright
ENCODING 8594
SWIDTH 750 0
DWIDTH 6 0
BBX 5 5 0 0
BITMAP
20
10
F8
10
20
ENDCHAR
STARTCHAR arrowdown
ENCODING 8595
SWIDTH 750 0
DWIDTH 6 0
BBX 5 5 0 0
BITMAP
20
20
A8
70
20
ENDCHAR
STARTCHAR arrowlongboth
ENCODING 8596
SWIDTH 1250 0
DWIDTH 10 0
BBX 9 5 0 0
BITMAP
2200
4100
FF80
4100
2200
ENDCHAR
STARTCHAR arrowlongbothv
ENCODING 8597
SWIDTH 750 0
DWIDTH 6 0
BBX 5 9 0 -2
BITMAP
20
70
A8
20
20
20
A8
70
20
ENDCHAR
STARTCHAR arrownorthwest
ENCODING 8598
SWIDTH 750 0
DWIDTH 6 0
BBX 5 5 0 0
BITMAP
F8
C0
A0
90
88
ENDCHAR
STARTCHAR arrownortheast
ENCODING 8599
SWIDTH 750 0
DWIDTH 6 0
BBX 5 5 0 0
BITMAP
F8
18
28
48
88
ENDCHAR
STARTCHAR arrowsoutheast
ENCODING 8600
SWIDTH 750 0
DWIDTH 6 0
BBX 5 5 0 0
BITMAP
88
48
28
18
F8
ENDCHAR
STARTCHAR arrowsouthwest
ENCODING 8601
SWIDTH 750 0
DWIDTH 6 0
BBX 5 5 0 0
BITMAP
88
90
A0
C0
F8
ENDCHAR
STARTCHAR arrowrightdown
ENCODING 8628
SWIDTH 750 0
DWIDTH 6 0
BBX 5 5 0 0
BITMAP
E0
20
A8
70
20
ENDCHAR
STARTCHAR carriagerreturn
ENCODING 8629
SWIDTH 750 0
DWIDTH 6 0
BBX 5 5 0 0
BITMAP
28
48
F8
40
20
ENDCHAR
STARTCHAR arrowdashleft
ENCODING 8672
SWIDTH 1000 0
DWIDTH 8 0
BBX 7 5 0 0
BITMAP
20
40
EA
40
20
ENDCHAR
STARTCHAR arrowdashup
ENCODING 8673
SWIDTH 750 0
DWIDTH 6 0
BBX 5 7 0 -1
BITMAP
20
70
A8
00
20
00
20
ENDCHAR
STARTCHAR arrowdashright
ENCODING 8674
SWIDTH 1000 0
DWIDTH 8 0
BBX 7 5 0 0
BITMAP
08
04
AE
04
08
ENDCHAR
STARTCHAR arrowdashdown
ENCODING 8675
SWIDTH 750 0
DWIDTH 6 0
BBX 5 7 0 -1
BITMAP
20
00
20
00
A8
70
20
ENDCHAR
STARTCHAR partialdiff
ENCODING 8706
SWIDTH 500 0
DWIDTH 4 0
BBX 3 5 0 0
BITMAP
40
20
40
A0
40
ENDCHAR
STARTCHAR Delta.dup4
ENCODING 8710
SWIDTH 750 0
DWIDTH 6 0
BBX 5 5 0 0
BITMAP
20
50
50
88
F8
ENDCHAR
STARTCHAR product
ENCODING 8719
SWIDTH 750 0
DWIDTH 6 0
BBX 5 5 0 0
BITMAP
F8
50
50
50
50
ENDCHAR
STARTCHAR summation
ENCODING 8721
SWIDTH 750 0
DWIDTH 6 0
BBX 5 5 0 0
BITMAP
F8
48
20
48
F8
ENDCHAR
STARTCHAR minus.dup5
ENCODING 8722
SWIDTH 625 0
DWIDTH 5 0
BBX 4 1 0 2
BITMAP
F0
ENDCHAR
STARTCHAR periodcentered.dup6
ENCODING 8729
SWIDTH 250 0
DWIDTH 2 0
BBX 1 1 0 2
BITMAP
80
ENDCHAR
STARTCHAR radical
ENCODING 8730
SWIDTH 750 0
DWIDTH 6 0
BBX 5 4 0 0
BITMAP
08
10
A0
40
ENDCHAR
STARTCHAR infinity
ENCODING 8734
SWIDTH 750 0
DWIDTH 6 0
BBX 5 3 0 1
BITMAP
50
A8
50
ENDCHAR
STARTCHAR integral
ENCODING 8747
SWIDTH 375 0
DWIDTH 3 0
BBX 3 7 -1 -1
BITMAP
20
40
40
40
40
40
80
ENDCHAR
STARTCHAR approxequal
ENCODING 8776
SWIDTH 750 0
DWIDTH 6 0
BBX 5 5 0 1
BITMAP
68
90
00
68
90
ENDCHAR
STARTCHAR notequal
ENCODING 8800
SWIDTH 750 0
DWIDTH 6 0
BBX 5 5 0 0
BITMAP
10
F8
20
F8
40
ENDCHAR
STARTCHAR lessequal
ENCODING 8804
SWIDTH 625 0
DWIDTH 5 0
BBX 4 5 0 0
BITMAP
30
C0
30
00
F0
ENDCHAR
STARTCHAR greaterequal
ENCODING 8805
SWIDTH 625 0
DWIDTH 5 0
BBX 4 5 0 0
BITMAP
C0
30
C0
00
F0
ENDCHAR
STARTCHAR approxequal.dup7
ENCODING 8946
SWIDTH 750 0
DWIDTH 6 0
BBX 5 5 0 1
BITMAP
68
90
00
68
90
ENDCHAR
STARTCHAR lozenge
ENCODING 9674
SWIDTH 500 0
DWIDTH 4 0
BBX 3 3 0 1
BITMAP
40
A0
40
ENDCHAR
STARTCHAR apple
ENCODING 61440
SWIDTH 3000 0
DWIDTH 24 0
BBX 23 3 0 0
BITMAP
FAEBE8
AAAAA8
AAAAAE
ENDCHAR
STARTCHAR fi
ENCODING 61441
SWIDTH 625 0
DWIDTH 5 0
BBX 4 5 0 0
BITMAP
70
80
F0
90
90
ENDCHAR
STARTCHAR fl
ENCODING 61442
SWIDTH 625 0
DWIDTH 5 0
BBX 4 5 0 0
BITMAP
70
90
F0
90
90
ENDCHAR
STARTCHAR .notdef
ENCODING -1
SWIDTH 500 0
DWIDTH 4 0
BBX 1 7 3 0
BITMAP
80
80
80
80
80
80
80
ENDCHAR
ENDFONT
